<svg width="50" height="51" viewBox="0 0 50 51" fill="none" xmlns="http://www.w3.org/2000/svg">
<path d="M21.0272 18.5394C21.0272 18.5394 22.1529 12.5938 24.8286 12.5938C27.5044 12.5938 28.5263 18.1237 29.1888 18.9307C30.7629 20.8485 33.0998 12.3827 34.9679 12.6826C37.2414 13.0475 37.7516 21.1782 36.9488 21.5351C36.1461 21.8919 35.6239 19.2628 35.2563 19.4756C34.0706 20.1622 34.8195 24.7743 34.133 25.2795C33.0651 26.0655 32.5972 23.1803 31.8864 23.7817C30.9945 24.5364 32.831 31.4972 32.1175 32.4783C31.404 33.4594 30.3484 30.7254 29.5458 31.2389C28.743 31.7524 29.4644 36.8013 27.7051 37.1994C24.3623 37.9559 24.7295 32.3985 23.4808 32.6659C22.2321 32.9334 21.921 35.4027 20.8051 35.4307C19.3423 35.4676 19.8432 29.8529 19.2799 30.2095C18.7167 30.5662 18.7721 31.418 17.9975 31.5063C16.7836 31.645 19.2175 23.4707 17.7821 24.0311C16.9901 24.3403 16.4347 26.5117 15.9888 25.7089C15.5429 24.9062 15.8105 21.4278 14.9184 21.4278C14.0266 21.4278 13.6698 23.2117 13.0455 22.7656C12.4212 22.3197 12.4587 13.2077 14.5992 13.2968C16.7398 13.3859 18.9622 21.5124 21.0272 18.5394Z" fill="#FFFAEF"/>
<path d="M26.2072 19.9745C26.2072 19.9745 25.8658 17.9151 25.0067 17.7278C24.1476 17.5406 22.8371 22.5332 24.1476 23.2821C25.4582 24.031 26.7688 22.4708 26.2072 19.9745Z" fill="#2D1D26"/>
<path d="M13.0454 22.7658C13.6697 23.2118 14.0265 21.4281 14.9184 21.4281C15.8103 21.4281 15.5427 24.9064 15.9887 25.7092C16.4347 26.5119 16.9902 24.3405 17.782 24.0314C19.2175 23.471 16.7835 31.6452 17.9974 31.5065C18.772 31.418 18.7167 30.5665 19.2799 30.2098C19.8431 29.8529 19.3423 35.4677 20.805 35.431C21.9208 35.4028 22.2321 32.9336 23.4808 32.6661C24.7294 32.3986 24.3621 37.9561 27.7051 37.1996C29.4643 36.8015 28.743 31.7526 29.5457 31.2391C30.3485 30.7256 31.4039 33.4596 32.1175 32.4785C32.831 31.4974 30.9944 24.5366 31.8863 23.7819C32.5972 23.1805 33.0652 26.0657 34.1329 25.2798C34.8194 24.7745 34.0705 20.1622 35.2562 19.4759C35.6238 19.263 36.146 21.8921 36.9488 21.5353C37.3109 21.3744 37.4056 19.6315 37.1922 17.7333C37.1913 17.7286 37.1904 17.7233 37.1904 17.7233C37.1904 17.7233 37.3033 19.8221 36.652 20.204C36.0007 20.5859 35.2406 18.4409 35.2406 18.4409C35.2406 18.4409 33.8934 22.8985 33.3802 23.4712C32.867 24.044 30.9605 22.7353 30.9605 22.7353C30.9605 22.7353 31.1349 27.3893 30.9605 29.1856C30.7862 30.9818 29.2039 29.2498 29.2039 29.2498C29.2039 29.2498 29.1418 32.536 27.1951 33.3556C25.2484 34.1752 23.7143 29.5637 23.7143 29.5637C23.7143 29.5637 22.859 31.2385 21.5312 31.6234C20.2036 32.0082 19.3357 26.4696 19.0738 23.0694C18.9338 21.251 17.7197 24.0045 16.7642 23.4711C15.9331 23.0072 17.2346 18.6641 14.4874 20.1984C12.6303 21.2354 13.5347 14.2514 13.5349 14.251C12.4713 16.583 12.5492 22.4114 13.0454 22.7658Z" fill="#C1E2CB"/>
<path d="M27.5875 15.0878C27.5875 15.0878 25.6726 12.3767 23.8219 13.4888C22.3921 14.3479 22.2791 19.5504 20.0564 19.1927C20.0564 19.1927 21.2188 18.0503 21.6219 16.3684C22.0251 14.6865 22.9898 12.5938 24.7196 12.2913C26.4493 11.9888 27.5875 15.0878 27.5875 15.0878Z" fill="#C1E2CB"/>
<path d="M27.3876 17.9162C27.3876 17.9162 26.9841 16.1965 26.0712 16.3026C25.1582 16.4088 26.8152 19.1687 27.0802 19.1475C27.3453 19.1264 27.5584 18.4419 27.3876 17.9162Z" fill="#2D1D26"/>
<path d="M22.6123 17.9162C22.6123 17.9162 23.0158 16.1965 23.9287 16.3026C24.8417 16.4088 23.1847 19.1687 22.9197 19.1475C22.6548 19.1264 22.4415 18.4419 22.6123 17.9162Z" fill="#2D1D26"/>
</svg>
