<svg width="50" height="50" viewBox="0 0 50 50" fill="none" xmlns="http://www.w3.org/2000/svg">
<path d="M15.5793 28.2941C15.6552 28.2669 15.6254 28.1532 15.5458 28.1666C13.482 28.5142 7.7571 29.7434 8.00799 32.6519C8.3125 36.1816 15.8084 37.5845 18.1257 37.9348C18.2051 37.9467 18.2326 37.8334 18.1568 37.8066C16.0723 37.0725 9.64582 34.6484 9.53315 32.6304C9.42525 30.6959 13.8367 28.9192 15.5793 28.2941Z" fill="#AAD6EF"/>
<path d="M20.0327 28.7798C20.0857 28.7648 20.0726 28.6865 20.0177 28.6895C18.9504 28.7476 16.1811 29.046 15.9253 30.5806C15.6078 32.4856 17.2417 33.4307 18.1478 33.8191C19.4813 34.3906 20.49 34.6926 23.4819 34.8351C24.334 34.8757 25.316 34.7347 25.9138 34.6276C25.9689 34.6178 25.962 34.5367 25.906 34.5364C25.1713 34.5314 23.7331 34.4322 21.7038 33.8826C18.6558 33.057 17.1953 31.9141 17.2588 30.644C17.308 29.6593 19.1899 29.0181 20.0327 28.7798Z" fill="#51B7EF"/>
<path d="M32.134 28.5618C32.0382 28.5462 32.004 28.6843 32.096 28.7156C33.1163 29.0632 34.7103 29.8196 34.4039 31.0887C33.9594 32.9303 31.7037 33.3647 30.9114 33.6287C30.2301 33.8559 28.5742 34.2778 27.6864 34.4998C27.5953 34.5226 27.6122 34.6564 27.7062 34.6565C29.3238 34.6578 33.8945 34.5199 35.3353 32.3588C36.8499 30.0869 33.9559 28.8574 32.134 28.5618Z" fill="#73C3EF"/>
<path d="M14.0094 30.6889C14.0502 30.6397 14.1291 30.6851 14.1059 30.7447C13.7344 31.7011 13.2728 34.3373 18.7828 35.4701C24.0898 36.5613 30.0167 35.5992 32.3574 35.1257C32.4271 35.1116 32.4533 35.213 32.3855 35.2345C29.908 36.0191 23.5242 37.5021 18.6558 36.5496C12.9227 35.428 12.2405 32.8212 14.0094 30.6889Z" fill="#73C3EF"/>
<path d="M35.947 28.3508C35.8698 28.3294 35.8193 28.4419 35.8917 28.4764C38.4469 29.6916 40.1989 31.3645 39.103 32.9301C37.8286 34.7506 32.2045 37.2671 26.4985 37.8192C26.4142 37.8273 26.4152 37.9509 26.4996 37.9571C28.9596 38.1388 36.5419 37.8831 40.2459 34.3271C43.748 30.9651 37.6864 28.8331 35.947 28.3508Z" fill="#AAD6EF"/>
<path d="M31.0301 30.0704C30.8416 29.7514 30.4504 29.7274 30.1168 29.6231C29.7701 29.5149 29.4395 29.396 29.1226 29.2147C28.4241 28.8153 27.8814 28.2156 27.4225 27.5648C26.5715 26.3582 25.9599 24.8593 26.1427 23.3698C26.2042 23.1517 26.284 22.9358 26.3875 22.711C26.6307 22.1828 26.8984 21.6596 27.0431 21.0934C27.2559 20.2604 26.8875 18.6368 25.8402 18.567C24.7049 18.4913 24.467 19.5012 24.349 20.3177C24.1939 21.3907 24.6663 22.4573 25.0712 23.4255C25.094 23.8072 25.0956 24.1911 25.0714 24.5721C25.0114 25.5172 24.7722 26.4441 24.352 27.2937C23.6137 28.7868 22.1979 29.8569 20.5586 30.1431C20.4565 30.1609 20.3115 30.1925 20.2521 30.2858C20.1637 30.4245 20.1978 30.5968 20.2142 30.6516C20.4412 31.4085 21.3342 31.9437 22.0837 32.2027C23.0987 32.5536 24.2092 32.6969 25.2786 32.7272C26.3772 32.7584 27.4542 32.5926 28.4955 32.2422C29.4008 31.9377 30.4058 31.4795 30.9498 30.6561C30.9795 30.6237 31.0071 30.588 31.0313 30.5473C31.1174 30.4026 31.1156 30.2149 31.0301 30.0704Z" fill="#73C3EF"/>
<path opacity="0.5" d="M25.0077 29.8445C24.0837 29.3684 23.1929 29.3056 22.4366 29.4147C21.8692 29.773 21.2334 30.0254 20.5586 30.1432C20.5114 30.1514 20.4554 30.1634 20.4025 30.1823C20.3051 30.2455 20.2522 30.2858 20.2521 30.286C20.1638 30.4247 20.1977 30.597 20.2142 30.6518C20.4413 31.4086 21.3342 31.9439 22.0837 32.2029C23.0987 32.5537 24.2092 32.697 25.2786 32.7274C26.1589 32.7523 27.0249 32.6487 27.8702 32.4272C27.4225 31.7148 26.5453 30.6365 25.0077 29.8445Z" fill="white"/>
<path d="M20.2142 30.6515C20.4413 31.4084 21.3342 31.9436 22.0837 32.2026C23.0987 32.5535 24.2093 32.6967 25.2786 32.7271C26.3772 32.7583 27.4543 32.5924 28.4955 32.2421C29.4008 31.9376 30.4058 31.4794 30.9499 30.656C30.9795 30.6236 31.0071 30.5879 31.0313 30.5472C31.1174 30.4024 31.1156 30.2148 31.0301 30.0702C30.8416 29.7513 30.4504 29.7272 30.1168 29.623C29.7701 29.5147 29.4395 29.3958 29.1226 29.2146C28.4241 28.8151 27.8814 28.2155 27.4225 27.5647C26.5715 26.358 25.9599 24.8591 26.1427 23.3696C26.2042 23.1516 26.284 22.9357 26.3875 22.7108C26.6307 22.1827 26.8984 21.6594 27.0431 21.0933C27.2178 20.4093 27.0004 19.1932 26.3375 18.7409L25.8403 18.5669C25.8403 18.5669 26.8242 19.9292 26.0673 21.5943C25.4649 22.9197 25.3861 24.3191 25.6132 25.7571C25.8403 27.1952 26.5559 29.2365 27.5811 29.9199C29.3976 31.1309 28.4018 32.1533 24.4779 31.8121C22.7372 31.6607 21.2099 31.1831 20.2521 30.2857C20.1638 30.4244 20.1977 30.5967 20.2142 30.6515Z" fill="#51B7EF"/>
<path opacity="0.5" d="M26.0673 19.2103C26.0673 18.9798 26.0083 18.7631 25.9047 18.5743C25.8834 18.5715 25.8623 18.5684 25.8403 18.567C24.705 18.4913 24.4671 19.5012 24.3491 20.3177C24.3418 20.3683 24.3371 20.4188 24.3325 20.4693C24.4618 20.5114 24.5996 20.5348 24.7429 20.5348C25.4744 20.5348 26.0673 19.9418 26.0673 19.2103Z" fill="white"/>
<path opacity="0.5" d="M24.7051 20.4969C24.7051 20.894 24.8575 21.2159 25.0456 21.2159C25.2337 21.2159 25.3862 20.894 25.3862 20.4969C25.3862 20.0997 25.2337 19.7778 25.0456 19.7778C24.8575 19.7778 24.7051 20.0997 24.7051 20.4969Z" fill="white"/>
<path opacity="0.5" d="M25.1592 19.2481C25.1592 19.1226 25.2608 19.021 25.3862 19.021C25.5117 19.021 25.6133 19.1226 25.6133 19.2481C25.6133 19.3735 25.5117 19.4751 25.3862 19.4751C25.2608 19.4751 25.1592 19.3735 25.1592 19.2481Z" fill="white"/>
<path opacity="0.5" d="M21.6775 31.2822C21.6775 30.9478 21.9486 30.6768 22.283 30.6768C22.6173 30.6768 22.8885 30.9478 22.8885 31.2822C22.8885 31.6166 22.6173 31.8877 22.283 31.8877C21.9486 31.8877 21.6775 31.6166 21.6775 31.2822Z" fill="white"/>
<path d="M25.3275 16.4543C26.2814 16.4543 27.0546 15.681 27.0546 14.7272C27.0546 13.7733 26.2814 13 25.3275 13C24.3736 13 23.6003 13.7733 23.6003 14.7272C23.6003 15.681 24.3736 16.4543 25.3275 16.4543Z" fill="#51B7EF"/>
<path d="M23.9443 14.7381C23.9443 14.9717 24.0014 15.1915 24.1006 15.3863C24.2953 15.4855 24.5152 15.5426 24.7487 15.5426C25.5396 15.5426 26.1807 14.9015 26.1807 14.1106C26.1807 13.877 26.1236 13.6572 26.0245 13.4624C25.8297 13.3632 25.6099 13.3062 25.3762 13.3062C24.5854 13.3061 23.9443 13.9473 23.9443 14.7381Z" fill="#AAD6EF"/>
<path opacity="0.5" d="M25.1211 15.2371C25.1211 14.8818 25.4091 14.5938 25.7645 14.5938C26.1198 14.5938 26.4077 14.8818 26.4077 15.2371C26.4077 15.5924 26.1198 15.8804 25.7645 15.8804C25.4091 15.8804 25.1211 15.5924 25.1211 15.2371Z" fill="white"/>
<path opacity="0.5" d="M24.1372 13.8369C24.1372 13.6697 24.2727 13.5342 24.4399 13.5342C24.6072 13.5342 24.7427 13.6697 24.7427 13.8369C24.7427 14.0041 24.6072 14.1397 24.4399 14.1397C24.2728 14.1397 24.1372 14.0041 24.1372 13.8369Z" fill="white"/>
</svg>
