<svg width="50" height="50" viewBox="0 0 50 50" fill="none" xmlns="http://www.w3.org/2000/svg">
<path d="M37.3543 10.3237C37.898 10.1742 38.4647 10.1442 39.0099 10.3064C40.3713 10.7116 40.9921 12.1553 40.8164 13.4882C40.672 14.5839 40.042 15.509 39.2601 16.2836C38.697 16.1022 38.1665 15.7913 37.7194 15.3442C36.3499 13.9745 36.231 11.8326 37.3543 10.3237Z" fill="#73C3EF"/>
<path d="M37.872 17.4395C36.2486 18.6103 34.4521 19.2128 32.5619 19.7966C31.5875 20.0977 30.589 20.4218 29.732 20.9894C28.8244 21.5905 28.3099 22.4113 27.9839 23.4324C27.7555 24.148 27.5752 24.9445 27.0662 25.5236C26.5444 26.1173 25.8843 26.1323 25.1598 26.2573C24.0905 26.4416 24.135 27.3918 23.4991 28.0523C22.9713 28.6006 22.1727 28.6026 21.4935 28.8211C19.8611 29.3461 19.8138 31.3677 18.9504 32.5936C18.5812 33.1178 18.0853 33.4586 17.4524 33.575C17.0834 33.6429 16.705 33.6451 16.3368 33.7173C15.629 33.8562 15.2692 34.3731 14.9822 34.9856C14.5473 35.9139 14.0936 36.6905 13.3094 37.3699C12.5792 38.0024 11.7376 38.4902 10.8906 38.947C10.4121 39.205 9.78642 39.6352 9.27678 39.1947C8.90813 38.8761 8.83952 38.2608 9.04639 37.8352C9.36555 37.1788 10.1781 36.9639 10.8244 36.8074C10.8829 36.7932 10.9327 36.8048 10.9713 36.8311C11.1975 36.7335 11.4242 36.6446 11.6345 36.5557C12.3165 36.2671 13.0824 35.938 13.449 35.2507C13.799 34.5945 13.7751 33.7992 13.8616 33.0791C13.9266 32.5385 14.0288 31.9668 14.3889 31.537C14.8276 31.0137 15.465 30.9133 16.1106 30.8662C17.0631 30.7967 17.7301 30.5491 18.2714 29.7287C18.6783 29.1122 18.9343 28.4098 19.2899 27.765C19.5726 27.2519 19.9187 26.7437 20.431 26.4366C21.1148 26.0267 21.8848 26.2407 22.6049 25.9844C24.148 25.4352 24.1566 23.0482 24.5828 21.7426C25.7454 18.1807 30.2289 18.4717 32.3413 15.7745C33.4785 14.3225 34.1002 12.4475 35.5686 11.2667C36.4978 10.5195 37.8069 9.94814 39.0095 10.306C40.3709 10.7112 40.9917 12.1548 40.816 13.4878C40.5916 15.1926 39.1931 16.4866 37.872 17.4395Z" fill="#51B7EF"/>
<path d="M30.9626 19.4049C29.9739 19.675 28.9627 19.9681 28.1291 20.5224C27.2463 21.1094 26.8024 21.9438 26.5806 22.9965C26.4251 23.7342 26.3299 24.5586 25.8633 25.1407C25.385 25.7375 24.6929 25.7231 23.9462 25.8205C22.8442 25.9644 23.0032 26.9597 22.413 27.6212C21.9231 28.1702 21.0839 28.1359 20.3958 28.3332C18.7421 28.8075 18.9315 30.9187 18.1689 32.1607C17.8429 32.6919 17.3619 33.0256 16.7105 33.1182C16.3306 33.1724 15.9332 33.1574 15.5548 33.216C14.8272 33.3289 14.5102 33.8527 14.281 34.4799C13.9337 35.4307 13.5487 36.2217 12.8046 36.8962C12.112 37.524 11.285 37.9955 10.4488 38.4344C10.0335 38.6523 9.51421 39.0035 8.99542 38.7566C8.89589 38.4565 8.91409 38.1073 9.0464 37.835C9.36557 37.1785 10.1781 36.9637 10.8244 36.8071C10.8829 36.7929 10.9327 36.8046 10.9713 36.8308C11.1975 36.7333 11.4243 36.6444 11.6345 36.5554C12.3165 36.2669 13.0824 35.9377 13.449 35.2504C13.799 34.5943 13.7751 33.7989 13.8617 33.0789C13.9266 32.5383 14.0288 31.9665 14.3889 31.5368C14.8276 31.0134 15.465 30.9131 16.1106 30.8659C17.0631 30.7964 17.7301 30.5489 18.2714 29.7284C18.6783 29.112 18.9343 28.4095 19.2899 27.7647C19.5726 27.2517 19.9187 26.7435 20.431 26.4363C21.1148 26.0264 21.8848 26.2404 22.6049 25.9841C24.148 25.435 24.1566 23.048 24.5828 21.7423C25.7454 18.1805 30.229 18.4715 32.3413 15.7743C33.4785 14.3222 34.1002 12.4473 35.5686 11.2664C36.1251 10.819 36.8181 10.4363 37.5427 10.2768C38.433 10.9754 38.6004 11.7959 38.5796 12.8574C38.5452 14.6298 37.3697 15.9375 36.0937 16.8733C34.5259 18.0234 32.8803 18.8809 30.9626 19.4049Z" fill="#73C3EF"/>
<path opacity="0.5" d="M38.867 11.352C38.867 11.352 39.9785 13.1806 38.6518 15.081C37.3252 16.9813 35.5682 18.0211 35.5682 18.0211C35.5682 18.0211 39.0103 16.4434 39.6916 14.6865C40.3729 12.9296 38.867 11.352 38.867 11.352Z" fill="white"/>
<path opacity="0.5" d="M33.9902 16.228C33.2364 15.4741 35.6036 11.244 37.1096 11.6743C38.6157 12.1046 36.5 15.1523 35.7829 15.7977C35.0658 16.4431 34.4563 16.6941 33.9902 16.228Z" fill="white"/>
<path opacity="0.5" d="M25.5283 21.6064C25.1323 21.2104 26.8191 19.3117 27.321 19.4551C27.8231 19.5985 26.1379 22.216 25.5283 21.6064Z" fill="white"/>
<path opacity="0.5" d="M14.8193 32.6977C14.5325 32.2197 15.4408 31.3114 16.2536 31.4548C17.0662 31.5982 17.401 31.7416 17.6878 31.2635C17.9747 30.7855 17.9747 32.411 16.6839 32.4588C15.393 32.5065 14.8193 32.6977 14.8193 32.6977Z" fill="white"/>
<path opacity="0.5" d="M22.2773 27.1521C22.1189 27.3105 22.1189 27.5674 22.2773 27.7258C22.4357 27.8842 22.6927 27.8843 22.8511 27.7259C23.0095 27.5674 23.0095 27.3106 22.851 27.1521C22.6927 26.9937 22.4358 26.9937 22.2773 27.1521Z" fill="white"/>
<path opacity="0.5" d="M26.0066 23.8054C25.8482 23.9639 25.8482 24.2207 26.0066 24.3792C26.165 24.5376 26.4219 24.5376 26.5803 24.3792C26.7387 24.2208 26.7388 23.9639 26.5803 23.8055C26.4219 23.647 26.165 23.647 26.0066 23.8054Z" fill="white"/>
<path opacity="0.5" d="M32.0306 17.2084C31.8194 17.4196 31.8194 17.762 32.0306 17.9732C32.2418 18.1844 32.5843 18.1844 32.7955 17.9732C33.0067 17.762 33.0067 17.4195 32.7955 17.2083C32.5843 16.9971 32.2419 16.9972 32.0306 17.2084Z" fill="white"/>
<path opacity="0.5" d="M10.8038 38.339C10.5925 38.5502 10.2501 38.5502 10.0389 38.3389C9.82768 38.1277 9.82774 37.7853 10.0389 37.5741C10.2502 37.3629 10.5926 37.3629 10.8038 37.574C11.015 37.7852 11.015 38.1277 10.8038 38.339Z" fill="white"/>
</svg>
