<svg width="50" height="50" viewBox="0 0 50 50" fill="none" xmlns="http://www.w3.org/2000/svg">
<path d="M41.6764 14.8158C39.7029 16.1217 31.1479 21.2279 32.691 10.4896C32.691 10.4896 25.3681 20.941 26.5767 8.85449C26.5767 8.85449 23.0928 19.0926 19.3956 8.85449C19.3956 8.85449 20.4345 19.4759 11.7387 13.0988C11.7387 13.0988 17.0439 21.939 8.19263 22.6121C8.19263 22.6121 16.9781 23.9986 10.1526 32.246C10.1526 32.246 17.9022 25.9893 17.1914 33.3126C17.1914 33.3126 21.3151 29.4022 23.3058 35.5879C23.3058 35.5879 25.7943 27.696 31.2689 36.3699C31.2689 36.3699 28.8516 25.2075 36.6725 31.4642C36.6725 31.4642 32.1932 22.5057 43.0001 25.2785C43.0001 25.2779 32.7775 21.0643 41.6764 14.8158Z" fill="#F48B00"/>
<path d="M39.64 16.2535C38.1039 17.2646 30.7084 21.6796 32.1061 11.9531C32.1061 11.9531 25.1354 21.1014 26.2163 10.2919C26.2163 10.2919 22.9656 19.345 19.6591 10.1885C19.6591 10.1885 20.4073 19.8069 12.6303 14.1036C12.6303 14.1036 17.375 22.0097 9.45898 22.6115C9.45898 22.6115 17.316 23.8514 11.2119 31.2273C11.2119 31.2273 18.3155 25.6954 17.6798 32.2445C17.6798 32.2445 21.4792 28.7157 23.2595 34.2475C23.2595 34.2475 25.7077 26.9035 30.6035 34.6609C30.6035 34.6609 28.6324 24.5508 35.6268 30.1463C35.6268 30.1463 31.1677 21.9676 40.8328 24.4474C40.8334 24.4477 31.5396 21.847 39.64 16.2535Z" fill="#820B0B"/>
<mask id="mask0_6_11" style="mask-type:luminance" maskUnits="userSpaceOnUse" x="9" y="10" width="32" height="25">
<path d="M39.64 16.2535C38.1039 17.2646 30.7084 21.6796 32.1061 11.9531C32.1061 11.9531 25.1354 21.1014 26.2163 10.2919C26.2163 10.2919 22.9656 19.345 19.6591 10.1885C19.6591 10.1885 20.4073 19.8069 12.6303 14.1036C12.6303 14.1036 17.375 22.0097 9.45898 22.6115C9.45898 22.6115 17.316 23.8514 11.2119 31.2273C11.2119 31.2273 18.3155 25.6954 17.6798 32.2445C17.6798 32.2445 21.4792 28.7157 23.2595 34.2475C23.2595 34.2475 25.7077 26.9035 30.6035 34.6609C30.6035 34.6609 28.6324 24.5508 35.6268 30.1463C35.6268 30.1463 31.1677 21.9676 40.8328 24.4474C40.8334 24.4477 31.5396 21.847 39.64 16.2535Z" fill="white"/>
</mask>
<g mask="url(#mask0_6_11)">
<path d="M20.212 10.6043C20.2445 10.6043 20.2708 10.578 20.2708 10.5455C20.2708 10.5131 20.2445 10.4868 20.212 10.4868C20.1796 10.4868 20.1533 10.5131 20.1533 10.5455C20.1533 10.578 20.1796 10.6043 20.212 10.6043Z" fill="#F4D178"/>
<path d="M25.7758 10.7249C25.8747 10.7249 25.9549 10.6447 25.9549 10.5458C25.9549 10.4469 25.8747 10.3667 25.7758 10.3667C25.6769 10.3667 25.5967 10.4469 25.5967 10.5458C25.5967 10.6447 25.6769 10.7249 25.7758 10.7249Z" fill="#F4D178"/>
<path d="M26.8885 10.7219C26.9855 10.7219 27.0644 10.6433 27.0644 10.546C27.0644 10.4487 26.9855 10.3701 26.8885 10.3701C26.7915 10.3701 26.7126 10.449 26.7126 10.546C26.7126 10.643 26.7915 10.7219 26.8885 10.7219Z" fill="#F4D178"/>
<path d="M20.2121 11.8124C20.2974 11.8124 20.3664 11.7435 20.3664 11.6582C20.3664 11.5729 20.2974 11.5039 20.2121 11.5039C20.1268 11.5039 20.0579 11.5729 20.0579 11.6582C20.0579 11.7435 20.1268 11.8124 20.2121 11.8124Z" fill="#F4D178"/>
<path d="M21.3247 11.8559C21.4337 11.8559 21.5222 11.7674 21.5222 11.6584C21.5222 11.5495 21.4337 11.4609 21.3247 11.4609C21.2157 11.4609 21.1272 11.5495 21.1272 11.6584C21.1272 11.7674 21.2157 11.8559 21.3247 11.8559Z" fill="#F4D178"/>
<path d="M25.7758 11.93C25.9257 11.93 26.0472 11.8085 26.0472 11.6586C26.0472 11.5087 25.9257 11.3872 25.7758 11.3872C25.626 11.3872 25.5042 11.5087 25.5042 11.6586C25.5042 11.8085 25.626 11.93 25.7758 11.93Z" fill="#F4D178"/>
<path d="M32.4521 11.7724C32.5152 11.7724 32.5663 11.7213 32.5663 11.6582C32.5663 11.5951 32.5152 11.5439 32.4521 11.5439C32.389 11.5439 32.3379 11.5951 32.3379 11.6582C32.3379 11.7213 32.389 11.7724 32.4521 11.7724Z" fill="#F4D178"/>
<path d="M19.0993 12.9623C19.2051 12.9623 19.2907 12.8767 19.2907 12.7709C19.2907 12.6652 19.2051 12.5796 19.0993 12.5796C18.9936 12.5796 18.908 12.6652 18.908 12.7709C18.908 12.8767 18.9936 12.9623 19.0993 12.9623Z" fill="#F4D178"/>
<path d="M20.2122 13.0117C20.3451 13.0117 20.4529 12.9039 20.4529 12.771C20.4529 12.6381 20.3451 12.5303 20.2122 12.5303C20.0792 12.5303 19.9714 12.6381 19.9714 12.771C19.9714 12.9039 20.0792 13.0117 20.2122 13.0117Z" fill="#F4D178"/>
<path d="M21.3249 13.0517C21.4801 13.0517 21.6057 12.9261 21.6057 12.771C21.6057 12.6159 21.4801 12.4902 21.3249 12.4902C21.1698 12.4902 21.0442 12.6159 21.0442 12.771C21.0442 12.9261 21.1698 13.0517 21.3249 13.0517Z" fill="#F4D178"/>
<path d="M24.663 13.12C24.8557 13.12 25.0119 12.9638 25.0119 12.7712C25.0119 12.5785 24.8557 12.4224 24.663 12.4224C24.4704 12.4224 24.3142 12.5785 24.3142 12.7712C24.3142 12.9638 24.4704 13.12 24.663 13.12Z" fill="#F4D178"/>
<path d="M25.7756 13.1264C25.9717 13.1264 26.1306 12.9675 26.1306 12.7715C26.1306 12.5754 25.9717 12.4165 25.7756 12.4165C25.5796 12.4165 25.4207 12.5754 25.4207 12.7715C25.4207 12.9675 25.5796 13.1264 25.7756 13.1264Z" fill="#F4D178"/>
<path d="M31.3397 13.0214C31.4776 13.0214 31.5895 12.9095 31.5895 12.7713C31.5895 12.6334 31.4776 12.5215 31.3397 12.5215C31.2015 12.5215 31.0896 12.6334 31.0896 12.7713C31.0896 12.9095 31.2015 13.0214 31.3397 13.0214Z" fill="#F4D178"/>
<path d="M32.4522 12.9717C32.563 12.9717 32.6529 12.8819 32.6529 12.771C32.6529 12.6602 32.563 12.5703 32.4522 12.5703C32.3413 12.5703 32.2515 12.6602 32.2515 12.771C32.2515 12.8819 32.3413 12.9717 32.4522 12.9717Z" fill="#F4D178"/>
<path d="M19.0993 14.1487C19.2459 14.1487 19.3645 14.0298 19.3645 13.8834C19.3645 13.7368 19.2456 13.6182 19.0993 13.6182C18.9526 13.6182 18.834 13.7371 18.834 13.8834C18.834 14.0301 18.9526 14.1487 19.0993 14.1487Z" fill="#F4D178"/>
<path d="M20.2121 14.1991C20.3859 14.1991 20.5267 14.0583 20.5267 13.8845C20.5267 13.7106 20.3859 13.5698 20.2121 13.5698C20.0383 13.5698 19.8975 13.7106 19.8975 13.8845C19.8975 14.0583 20.0383 14.1991 20.2121 14.1991Z" fill="#F4D178"/>
<path d="M21.3249 14.2392C21.521 14.2392 21.6799 14.0803 21.6799 13.8843C21.6799 13.6882 21.521 13.5293 21.3249 13.5293C21.1289 13.5293 20.97 13.6882 20.97 13.8843C20.97 14.0803 21.1289 14.2392 21.3249 14.2392Z" fill="#F4D178"/>
<path d="M22.4376 14.2693C22.6506 14.2693 22.8233 14.0967 22.8233 13.8837C22.8233 13.6707 22.6506 13.498 22.4376 13.498C22.2247 13.498 22.052 13.6707 22.052 13.8837C22.0517 14.0967 22.2247 14.2693 22.4376 14.2693Z" fill="#F4D178"/>
<path d="M23.5504 14.2946C23.7771 14.2946 23.9608 14.1108 23.9608 13.8841C23.9608 13.6574 23.7771 13.4736 23.5504 13.4736C23.3237 13.4736 23.1399 13.6574 23.1399 13.8841C23.1399 14.1108 23.3237 14.2946 23.5504 14.2946Z" fill="#F4D178"/>
<path d="M24.663 14.3064C24.8964 14.3064 25.0857 14.1171 25.0857 13.8837C25.0857 13.6503 24.8964 13.4609 24.663 13.4609C24.4295 13.4609 24.2402 13.6503 24.2402 13.8837C24.2402 14.1171 24.4295 14.3064 24.663 14.3064Z" fill="#F4D178"/>
<path d="M25.7758 14.3128C26.0127 14.3128 26.2047 14.1208 26.2047 13.884C26.2047 13.6471 26.0127 13.4551 25.7758 13.4551C25.5389 13.4551 25.3469 13.6471 25.3469 13.884C25.3469 14.1208 25.5389 14.3128 25.7758 14.3128Z" fill="#F4D178"/>
<path d="M26.8886 14.3091C27.1237 14.3091 27.3145 14.1184 27.3145 13.8835C27.3145 13.6483 27.1237 13.4575 26.8886 13.4575C26.6534 13.4575 26.4629 13.6483 26.4629 13.8835C26.4629 14.1187 26.6534 14.3091 26.8886 14.3091Z" fill="#F4D178"/>
<path d="M30.2268 14.2451C30.4261 14.2451 30.5879 14.0836 30.5879 13.884C30.5879 13.6845 30.4264 13.5229 30.2268 13.5229C30.0273 13.5229 29.8657 13.6845 29.8657 13.884C29.8657 14.0833 30.0273 14.2451 30.2268 14.2451Z" fill="#F4D178"/>
<path d="M31.3396 14.208C31.5184 14.208 31.6636 14.0631 31.6636 13.8841C31.6636 13.705 31.5187 13.5601 31.3396 13.5601C31.1605 13.5601 31.0156 13.705 31.0156 13.8841C31.0156 14.0628 31.1605 14.208 31.3396 14.208Z" fill="#F4D178"/>
<path d="M32.4521 14.1613C32.6055 14.1613 32.73 14.0372 32.73 13.8838C32.73 13.7304 32.6055 13.606 32.4521 13.606C32.2988 13.606 32.1743 13.7304 32.1743 13.8838C32.1746 14.0372 32.2988 14.1613 32.4521 14.1613Z" fill="#F4D178"/>
<path d="M14.6484 15.0366C14.6706 15.0366 14.6884 15.0188 14.6884 14.9966C14.6884 14.9744 14.6706 14.9565 14.6484 14.9565C14.6262 14.9565 14.6084 14.9747 14.6084 14.9966C14.6081 15.0188 14.6262 15.0366 14.6484 15.0366Z" fill="#F4D178"/>
<path d="M15.7611 15.1261C15.8326 15.1261 15.8908 15.068 15.8908 14.9964C15.8908 14.9248 15.8326 14.8667 15.7611 14.8667C15.6895 14.8667 15.6313 14.9248 15.6313 14.9964C15.6313 15.0683 15.6895 15.1261 15.7611 15.1261Z" fill="#F4D178"/>
<path d="M17.9863 15.2714C18.138 15.2714 18.2609 15.1485 18.2609 14.9968C18.2609 14.8451 18.138 14.7222 17.9863 14.7222C17.8346 14.7222 17.7117 14.8451 17.7117 14.9968C17.7117 15.1485 17.8346 15.2714 17.9863 15.2714Z" fill="#F4D178"/>
<path d="M19.0992 15.3298C19.2833 15.3298 19.4326 15.1805 19.4326 14.9964C19.4326 14.8124 19.2833 14.6631 19.0992 14.6631C18.9152 14.6631 18.7659 14.8124 18.7659 14.9964C18.7659 15.1808 18.9152 15.3298 19.0992 15.3298Z" fill="#F4D178"/>
<path d="M20.212 15.3762C20.4215 15.3762 20.5915 15.2062 20.5915 14.9967C20.5915 14.7872 20.4215 14.6172 20.212 14.6172C20.0026 14.6172 19.8325 14.7872 19.8325 14.9967C19.8325 15.2062 20.0026 15.3762 20.212 15.3762Z" fill="#F4D178"/>
<path d="M21.3248 15.4192C21.5583 15.4192 21.7476 15.2299 21.7476 14.9965C21.7476 14.763 21.5583 14.5737 21.3248 14.5737C21.0914 14.5737 20.9021 14.763 20.9021 14.9965C20.9021 15.2299 21.0914 15.4192 21.3248 15.4192Z" fill="#F4D178"/>
<path d="M22.4376 15.4504C22.6882 15.4504 22.8913 15.2473 22.8913 14.9967C22.8913 14.7461 22.6882 14.543 22.4376 14.543C22.187 14.543 21.9839 14.7461 21.9839 14.9967C21.9839 15.2473 22.187 15.4504 22.4376 15.4504Z" fill="#F4D178"/>
<path d="M23.5505 15.4716C23.8129 15.4716 24.0256 15.259 24.0256 14.9963C24.0256 14.7337 23.8129 14.521 23.5505 14.521C23.2882 14.521 23.0752 14.7337 23.0752 14.9963C23.0752 15.259 23.2879 15.4716 23.5505 15.4716Z" fill="#F4D178"/>
<path d="M24.6629 15.484C24.9322 15.484 25.1505 15.2657 25.1505 14.9964C25.1505 14.727 24.9322 14.5088 24.6629 14.5088C24.3935 14.5088 24.1753 14.727 24.1753 14.9964C24.1756 15.2657 24.3938 15.484 24.6629 15.484Z" fill="#F4D178"/>
<path d="M25.7757 15.4904C26.0484 15.4904 26.2694 15.2693 26.2694 14.9967C26.2694 14.724 26.0484 14.5029 25.7757 14.5029C25.503 14.5029 25.282 14.724 25.282 14.9967C25.282 15.2693 25.503 15.4904 25.7757 15.4904Z" fill="#F4D178"/>
<path d="M26.8885 15.4869C27.1593 15.4869 27.379 15.2672 27.379 14.9964C27.379 14.7256 27.1593 14.5059 26.8885 14.5059C26.6176 14.5059 26.3979 14.7256 26.3979 14.9964C26.3979 15.2672 26.6176 15.4869 26.8885 15.4869Z" fill="#F4D178"/>
<path d="M28.0012 15.4746C28.2653 15.4746 28.4794 15.2604 28.4794 14.9963C28.4794 14.7322 28.2653 14.5181 28.0012 14.5181C27.7371 14.5181 27.5229 14.7322 27.5229 14.9963C27.5229 15.2604 27.7371 15.4746 28.0012 15.4746Z" fill="#F4D178"/>
<path d="M29.1141 15.4533C29.3662 15.4533 29.5707 15.2488 29.5707 14.9967C29.5707 14.7445 29.3662 14.54 29.1141 14.54C28.862 14.54 28.6575 14.7445 28.6575 14.9967C28.6575 15.2488 28.8617 15.4533 29.1141 15.4533Z" fill="#F4D178"/>
<path d="M30.227 15.4256C30.4638 15.4256 30.6558 15.2336 30.6558 14.9967C30.6558 14.7599 30.4638 14.5679 30.227 14.5679C29.9901 14.5679 29.7981 14.7599 29.7981 14.9967C29.7981 15.2336 29.9901 15.4256 30.227 15.4256Z" fill="#F4D178"/>
<path d="M31.3398 15.3861C31.5545 15.3861 31.7286 15.212 31.7286 14.9972C31.7286 14.7825 31.5545 14.6084 31.3398 14.6084C31.125 14.6084 30.9509 14.7825 30.9509 14.9972C30.9509 15.212 31.125 15.3861 31.3398 15.3861Z" fill="#F4D178"/>
<path d="M32.4523 15.3391C32.6413 15.3391 32.7947 15.1857 32.7947 14.9967C32.7947 14.8077 32.6413 14.6543 32.4523 14.6543C32.2629 14.6543 32.1099 14.8077 32.1099 14.9967C32.1099 15.1857 32.2632 15.3391 32.4523 15.3391Z" fill="#F4D178"/>
<path d="M13.5359 16.1129C13.5377 16.1129 13.5393 16.1114 13.5393 16.1098C13.5393 16.108 13.5377 16.1064 13.5359 16.1064C13.534 16.1064 13.5325 16.108 13.5325 16.1098C13.5325 16.1114 13.534 16.1129 13.5359 16.1129Z" fill="#F4D178"/>
<path d="M14.6483 16.211C14.7047 16.211 14.7503 16.1654 14.7503 16.1093C14.7503 16.0532 14.7047 16.0073 14.6483 16.0073C14.5923 16.0073 14.5464 16.0529 14.5464 16.1093C14.5464 16.1657 14.592 16.211 14.6483 16.211Z" fill="#F4D178"/>
<path d="M15.7611 16.2972C15.8651 16.2972 15.9493 16.213 15.9493 16.109C15.9493 16.0051 15.8651 15.9209 15.7611 15.9209C15.6572 15.9209 15.573 16.0051 15.573 16.109C15.573 16.213 15.6572 16.2972 15.7611 16.2972Z" fill="#F4D178"/>
<path d="M16.8737 16.3748C17.0203 16.3748 17.1389 16.2559 17.1389 16.1095C17.1389 15.9629 17.02 15.8442 16.8737 15.8442C16.727 15.8442 16.6084 15.9631 16.6084 16.1095C16.6084 16.2559 16.7273 16.3748 16.8737 16.3748Z" fill="#F4D178"/>
<path d="M17.9864 16.4396C18.1687 16.4396 18.3165 16.2918 18.3165 16.1094C18.3165 15.9271 18.1687 15.7793 17.9864 15.7793C17.804 15.7793 17.6562 15.9271 17.6562 16.1094C17.6562 16.2918 17.804 16.4396 17.9864 16.4396Z" fill="#F4D178"/>
<path d="M19.0993 16.4979C19.3141 16.4979 19.4882 16.3238 19.4882 16.1091C19.4882 15.8943 19.3141 15.7202 19.0993 15.7202C18.8846 15.7202 18.7104 15.8943 18.7104 16.1091C18.7104 16.3238 18.8846 16.4979 19.0993 16.4979Z" fill="#F4D178"/>
<path d="M20.2121 16.5473C20.4542 16.5473 20.6504 16.3511 20.6504 16.1091C20.6504 15.8671 20.4542 15.6709 20.2121 15.6709C19.9701 15.6709 19.7739 15.8671 19.7739 16.1091C19.7739 16.3511 19.9701 16.5473 20.2121 16.5473Z" fill="#F4D178"/>
<path d="M21.3249 16.5874C21.5891 16.5874 21.8032 16.3732 21.8032 16.1091C21.8032 15.845 21.5891 15.6309 21.3249 15.6309C21.0608 15.6309 20.8467 15.845 20.8467 16.1091C20.8467 16.3732 21.0608 16.5874 21.3249 16.5874Z" fill="#F4D178"/>
<path d="M22.4377 16.6185C22.7189 16.6185 22.9469 16.3905 22.9469 16.1093C22.9469 15.8281 22.7189 15.6001 22.4377 15.6001C22.1565 15.6001 21.9285 15.8281 21.9285 16.1093C21.9285 16.3905 22.1565 16.6185 22.4377 16.6185Z" fill="#F4D178"/>
<path d="M23.5504 16.6398C23.8434 16.6398 24.0812 16.4023 24.0812 16.109C24.0812 15.8156 23.8437 15.5781 23.5504 15.5781C23.2573 15.5781 23.0195 15.8156 23.0195 16.109C23.0195 16.4023 23.2571 16.6398 23.5504 16.6398Z" fill="#F4D178"/>
<path d="M24.663 16.6521C24.963 16.6521 25.2061 16.4091 25.2061 16.109C25.2061 15.809 24.963 15.5659 24.663 15.5659C24.3629 15.5659 24.1199 15.809 24.1199 16.109C24.1199 16.4091 24.3632 16.6521 24.663 16.6521Z" fill="#F4D178"/>
<path d="M25.7758 16.6585C26.0791 16.6585 26.325 16.4126 26.325 16.1093C26.325 15.806 26.0791 15.5601 25.7758 15.5601C25.4725 15.5601 25.2266 15.806 25.2266 16.1093C25.2266 16.4126 25.4725 16.6585 25.7758 16.6585Z" fill="#F4D178"/>
<path d="M26.8886 16.656C27.1903 16.656 27.4349 16.4115 27.4349 16.11C27.4349 15.8085 27.1903 15.564 26.8886 15.564C26.5871 15.564 26.3425 15.8085 26.3425 16.11C26.3425 16.4115 26.5871 16.656 26.8886 16.656Z" fill="#F4D178"/>
<path d="M28.0013 16.6437C28.2961 16.6437 28.535 16.4047 28.535 16.1099C28.535 15.8151 28.2961 15.5762 28.0013 15.5762C27.7065 15.5762 27.4675 15.8151 27.4675 16.1099C27.4675 16.4047 27.7065 16.6437 28.0013 16.6437Z" fill="#F4D178"/>
<path d="M29.1142 16.6214C29.397 16.6214 29.6263 16.3921 29.6263 16.1093C29.6263 15.8265 29.397 15.5972 29.1142 15.5972C28.8314 15.5972 28.6021 15.8265 28.6021 16.1093C28.6021 16.3921 28.8314 16.6214 29.1142 16.6214Z" fill="#F4D178"/>
<path d="M30.2268 16.5938C30.4943 16.5938 30.7112 16.3769 30.7112 16.1094C30.7112 15.8419 30.4943 15.625 30.2268 15.625C29.9593 15.625 29.7424 15.8419 29.7424 16.1094C29.7424 16.3769 29.9593 16.5938 30.2268 16.5938Z" fill="#F4D178"/>
<path d="M31.3396 16.557C31.5868 16.557 31.7869 16.3565 31.7869 16.1097C31.7869 15.8625 31.5865 15.6621 31.3396 15.6621C31.0927 15.6621 30.8923 15.8625 30.8923 16.1097C30.892 16.3565 31.0924 16.557 31.3396 16.557Z" fill="#F4D178"/>
<path d="M32.4521 16.5072C32.6719 16.5072 32.85 16.3291 32.85 16.1093C32.85 15.8896 32.6719 15.7114 32.4521 15.7114C32.2323 15.7114 32.0542 15.8896 32.0542 16.1093C32.0542 16.3291 32.2323 16.5072 32.4521 16.5072Z" fill="#F4D178"/>
<path d="M13.5355 17.278C13.5662 17.278 13.591 17.2532 13.591 17.2225C13.591 17.1918 13.5662 17.167 13.5355 17.167C13.5048 17.167 13.48 17.1918 13.48 17.2225C13.48 17.2532 13.5048 17.278 13.5355 17.278Z" fill="#F4D178"/>
<path d="M14.6484 17.3735C14.7319 17.3735 14.7997 17.3057 14.7997 17.2221C14.7997 17.1386 14.7319 17.0708 14.6484 17.0708C14.5648 17.0708 14.4973 17.1386 14.4973 17.2221C14.497 17.3057 14.5648 17.3735 14.6484 17.3735Z" fill="#F4D178"/>
<path d="M15.7612 17.4594C15.8924 17.4594 15.9987 17.3531 15.9987 17.2219C15.9987 17.0907 15.8924 16.9844 15.7612 16.9844C15.63 16.9844 15.5237 17.0907 15.5237 17.2219C15.5234 17.3531 15.6297 17.4594 15.7612 17.4594Z" fill="#F4D178"/>
<path d="M16.8737 17.5336C17.0458 17.5336 17.1855 17.394 17.1855 17.2219C17.1855 17.0498 17.0458 16.9102 16.8737 16.9102C16.7017 16.9102 16.562 17.0498 16.562 17.2219C16.5623 17.3942 16.7017 17.5336 16.8737 17.5336Z" fill="#F4D178"/>
<path d="M17.9864 17.6018C18.196 17.6018 18.3659 17.4319 18.3659 17.2223C18.3659 17.0127 18.196 16.8428 17.9864 16.8428C17.7768 16.8428 17.6069 17.0127 17.6069 17.2223C17.6069 17.4319 17.7768 17.6018 17.9864 17.6018Z" fill="#F4D178"/>
<path d="M19.0994 17.6601C19.3413 17.6601 19.5376 17.4641 19.5376 17.2219C19.5376 16.9797 19.3415 16.7837 19.0994 16.7837C18.8572 16.7837 18.6611 16.9797 18.6611 17.2219C18.6611 17.4641 18.8575 17.6601 19.0994 17.6601Z" fill="#F4D178"/>
<path d="M20.2119 17.7066C20.4794 17.7066 20.6963 17.4897 20.6963 17.2222C20.6963 16.9547 20.4794 16.7378 20.2119 16.7378C19.9444 16.7378 19.7275 16.9547 19.7275 17.2222C19.7275 17.4897 19.9444 17.7066 20.2119 17.7066Z" fill="#F4D178"/>
<path d="M21.325 17.7467C21.6148 17.7467 21.8497 17.5118 21.8497 17.222C21.8497 16.9322 21.6148 16.6973 21.325 16.6973C21.0352 16.6973 20.8003 16.9322 20.8003 17.222C20.8003 17.5118 21.0352 17.7467 21.325 17.7467Z" fill="#F4D178"/>
<path d="M22.4377 17.7777C22.7445 17.7777 22.9931 17.5291 22.9931 17.2224C22.9931 16.9156 22.7445 16.667 22.4377 16.667C22.1309 16.667 21.8823 16.9156 21.8823 17.2224C21.8823 17.5288 22.1309 17.7777 22.4377 17.7777Z" fill="#F4D178"/>
<path d="M23.5504 17.799C23.8691 17.799 24.1274 17.5407 24.1274 17.222C24.1274 16.9033 23.8691 16.645 23.5504 16.645C23.2316 16.645 22.9734 16.9033 22.9734 17.222C22.9734 17.5407 23.2316 17.799 23.5504 17.799Z" fill="#F4D178"/>
<path d="M24.663 17.8113C24.9884 17.8113 25.2523 17.5475 25.2523 17.2221C25.2523 16.8966 24.9884 16.6328 24.663 16.6328C24.3376 16.6328 24.0737 16.8966 24.0737 17.2221C24.0737 17.5475 24.3376 17.8113 24.663 17.8113Z" fill="#F4D178"/>
<path d="M25.7758 17.8148C26.103 17.8148 26.3683 17.5496 26.3683 17.2224C26.3683 16.8952 26.103 16.6299 25.7758 16.6299C25.4486 16.6299 25.1833 16.8952 25.1833 17.2224C25.1833 17.5496 25.4486 17.8148 25.7758 17.8148Z" fill="#F4D178"/>
<path d="M26.8886 17.8113C27.214 17.8113 27.4778 17.5475 27.4778 17.2221C27.4778 16.8966 27.214 16.6328 26.8886 16.6328C26.5631 16.6328 26.2993 16.8966 26.2993 17.2221C26.2993 17.5475 26.5631 17.8113 26.8886 17.8113Z" fill="#F4D178"/>
<path d="M28.0013 17.802C28.3218 17.802 28.5816 17.5423 28.5816 17.2218C28.5816 16.9013 28.3218 16.6416 28.0013 16.6416C27.6809 16.6416 27.4211 16.9013 27.4211 17.2218C27.4211 17.5423 27.6809 17.802 28.0013 17.802Z" fill="#F4D178"/>
<path d="M29.114 17.7808C29.4225 17.7808 29.6726 17.5307 29.6726 17.2222C29.6726 16.9137 29.4225 16.6636 29.114 16.6636C28.8055 16.6636 28.5554 16.9137 28.5554 17.2222C28.5554 17.5307 28.8055 17.7808 29.114 17.7808Z" fill="#F4D178"/>
<path d="M30.2269 17.7526C30.5199 17.7526 30.7577 17.5151 30.7577 17.2218C30.7577 16.9284 30.5202 16.6909 30.2269 16.6909C29.9336 16.6909 29.696 16.9284 29.696 17.2218C29.696 17.5151 29.9336 17.7526 30.2269 17.7526Z" fill="#F4D178"/>
<path d="M31.3397 17.7155C31.6123 17.7155 31.8334 17.4943 31.8334 17.2218C31.8334 16.9492 31.6123 16.728 31.3397 16.728C31.0671 16.728 30.8459 16.9492 30.8459 17.2218C30.8459 17.4943 31.0668 17.7155 31.3397 17.7155Z" fill="#F4D178"/>
<path d="M32.4522 17.6695C32.6994 17.6695 32.8995 17.469 32.8995 17.2222C32.8995 16.9753 32.6991 16.7749 32.4522 16.7749C32.2051 16.7749 32.0046 16.9753 32.0046 17.2222C32.0046 17.469 32.2053 17.6695 32.4522 17.6695Z" fill="#F4D178"/>
<path d="M33.5651 17.6141C33.7816 17.6141 33.9569 17.4385 33.9569 17.2223C33.9569 17.0061 33.7816 16.8306 33.5651 16.8306C33.3486 16.8306 33.1733 17.0061 33.1733 17.2223C33.1733 17.4385 33.3486 17.6141 33.5651 17.6141Z" fill="#F4D178"/>
<path d="M35.7906 17.4752C35.9302 17.4752 36.0436 17.3619 36.0436 17.2222C36.0436 17.0826 35.9302 16.9692 35.7906 16.9692C35.651 16.9692 35.5376 17.0826 35.5376 17.2222C35.5376 17.3619 35.651 17.4752 35.7906 17.4752Z" fill="#F4D178"/>
<path d="M36.9034 17.3917C36.9971 17.3917 37.0731 17.3157 37.0731 17.222C37.0731 17.1282 36.9971 17.0522 36.9034 17.0522C36.8096 17.0522 36.7336 17.1282 36.7336 17.222C36.7336 17.3157 36.8096 17.3917 36.9034 17.3917Z" fill="#F4D178"/>
<path d="M38.0163 17.2963C38.0572 17.2963 38.0905 17.2633 38.0905 17.2224C38.0905 17.1814 38.0575 17.1484 38.0163 17.1484C37.9754 17.1484 37.9424 17.1814 37.9424 17.2224C37.9424 17.2633 37.9754 17.2963 38.0163 17.2963Z" fill="#F4D178"/>
<path d="M14.6484 18.5268C14.7541 18.5268 14.8397 18.4412 14.8397 18.3354C14.8397 18.2296 14.7541 18.144 14.6484 18.144C14.5426 18.144 14.457 18.2296 14.457 18.3354C14.457 18.4412 14.5426 18.5268 14.6484 18.5268Z" fill="#F4D178"/>
<path d="M15.7612 18.6128C15.9147 18.6128 16.0391 18.4884 16.0391 18.335C16.0391 18.1815 15.9147 18.0571 15.7612 18.0571C15.6078 18.0571 15.4834 18.1815 15.4834 18.335C15.4834 18.4884 15.6078 18.6128 15.7612 18.6128Z" fill="#F4D178"/>
<path d="M16.8737 18.6864C17.068 18.6864 17.2255 18.5289 17.2255 18.3347C17.2255 18.1404 17.068 17.9829 16.8737 17.9829C16.6794 17.9829 16.522 18.1404 16.522 18.3347C16.522 18.5289 16.6794 18.6864 16.8737 18.6864Z" fill="#F4D178"/>
<path d="M17.9864 18.7541C18.2181 18.7541 18.4059 18.5663 18.4059 18.3346C18.4059 18.1029 18.2181 17.915 17.9864 17.915C17.7547 17.915 17.5669 18.1029 17.5669 18.3346C17.5669 18.5663 17.7547 18.7541 17.9864 18.7541Z" fill="#F4D178"/>
<path d="M19.0994 18.8104C19.3617 18.8104 19.5744 18.5977 19.5744 18.3354C19.5744 18.073 19.3617 17.8604 19.0994 17.8604C18.837 17.8604 18.624 18.073 18.624 18.3354C18.624 18.5977 18.837 18.8104 19.0994 18.8104Z" fill="#F4D178"/>
<path d="M20.2119 18.8594C20.5015 18.8594 20.7363 18.6246 20.7363 18.335C20.7363 18.0453 20.5015 17.8105 20.2119 17.8105C19.9223 17.8105 19.6875 18.0453 19.6875 18.335C19.6875 18.6246 19.9223 18.8594 20.2119 18.8594Z" fill="#F4D178"/>
<path d="M21.3249 18.8965C21.6352 18.8965 21.8864 18.6449 21.8864 18.3349C21.8864 18.025 21.6349 17.7734 21.3249 17.7734C21.0147 17.7734 20.7634 18.025 20.7634 18.3349C20.7634 18.6449 21.0147 18.8965 21.3249 18.8965Z" fill="#F4D178"/>
<path d="M22.4377 18.9271C22.7649 18.9271 23.0302 18.6619 23.0302 18.3347C23.0302 18.0075 22.7649 17.7422 22.4377 17.7422C22.1105 17.7422 21.8452 18.0075 21.8452 18.3347C21.8452 18.6619 22.1105 18.9271 22.4377 18.9271Z" fill="#F4D178"/>
<path d="M23.5506 18.9459C23.888 18.9459 24.1615 18.6724 24.1615 18.335C24.1615 17.9976 23.888 17.7241 23.5506 17.7241C23.2131 17.7241 22.9397 17.9976 22.9397 18.335C22.9394 18.6721 23.2131 18.9459 23.5506 18.9459Z" fill="#F4D178"/>
<path d="M24.6629 18.9582C25.0071 18.9582 25.2861 18.6792 25.2861 18.3351C25.2861 17.9909 25.0071 17.7119 24.6629 17.7119C24.3188 17.7119 24.0398 17.9909 24.0398 18.3351C24.0398 18.6792 24.3188 18.9582 24.6629 18.9582Z" fill="#F4D178"/>
<path d="M25.7758 18.9647C26.1235 18.9647 26.4054 18.6829 26.4054 18.3351C26.4054 17.9874 26.1235 17.7056 25.7758 17.7056C25.4281 17.7056 25.1462 17.9874 25.1462 18.3351C25.1462 18.6829 25.4281 18.9647 25.7758 18.9647Z" fill="#F4D178"/>
<path d="M26.8886 18.9612C27.2345 18.9612 27.5149 18.6808 27.5149 18.3349C27.5149 17.989 27.2345 17.7085 26.8886 17.7085C26.5427 17.7085 26.2622 17.989 26.2622 18.3349C26.2622 18.6808 26.5427 18.9612 26.8886 18.9612Z" fill="#F4D178"/>
<path d="M28.0013 18.9489C28.3405 18.9489 28.6154 18.674 28.6154 18.3348C28.6154 17.9956 28.3405 17.7207 28.0013 17.7207C27.6621 17.7207 27.3872 17.9956 27.3872 18.3348C27.3872 18.674 27.6621 18.9489 28.0013 18.9489Z" fill="#F4D178"/>
<path d="M29.1142 18.9305C29.4432 18.9305 29.7096 18.6638 29.7096 18.3351C29.7096 18.0065 29.4429 17.7397 29.1142 17.7397C28.7852 17.7397 28.5188 18.0065 28.5188 18.3351C28.5188 18.6638 28.7852 18.9305 29.1142 18.9305Z" fill="#F4D178"/>
<path d="M30.2268 18.9029C30.5403 18.9029 30.7945 18.6487 30.7945 18.3352C30.7945 18.0217 30.5403 17.7676 30.2268 17.7676C29.9133 17.7676 29.6592 18.0217 29.6592 18.3352C29.6592 18.6487 29.9133 18.9029 30.2268 18.9029Z" fill="#F4D178"/>
<path d="M31.3397 18.8654C31.6327 18.8654 31.8705 18.6279 31.8705 18.3345C31.8705 18.0412 31.633 17.8037 31.3397 17.8037C31.0464 17.8037 30.8088 18.0412 30.8088 18.3345C30.8088 18.6279 31.0464 18.8654 31.3397 18.8654Z" fill="#F4D178"/>
<path d="M32.4522 18.8194C32.7197 18.8194 32.9365 18.6025 32.9365 18.335C32.9365 18.0675 32.7197 17.8506 32.4522 17.8506C32.1846 17.8506 31.9678 18.0675 31.9678 18.335C31.9678 18.6025 32.1846 18.8194 32.4522 18.8194Z" fill="#F4D178"/>
<path d="M33.5651 18.764C33.802 18.764 33.994 18.572 33.994 18.3351C33.994 18.0983 33.802 17.9062 33.5651 17.9062C33.3282 17.9062 33.1362 18.0983 33.1362 18.3351C33.1362 18.572 33.3282 18.764 33.5651 18.764Z" fill="#F4D178"/>
<path d="M34.6778 18.7022C34.8805 18.7022 35.045 18.5378 35.045 18.335C35.045 18.1323 34.8805 17.9678 34.6778 17.9678C34.475 17.9678 34.3105 18.1323 34.3105 18.335C34.3105 18.5378 34.475 18.7022 34.6778 18.7022Z" fill="#F4D178"/>
<path d="M35.7906 18.628C35.9524 18.628 36.0836 18.4969 36.0836 18.335C36.0836 18.1732 35.9524 18.042 35.7906 18.042C35.6287 18.042 35.4976 18.1732 35.4976 18.335C35.4976 18.4966 35.6287 18.628 35.7906 18.628Z" fill="#F4D178"/>
<path d="M36.9034 18.545C37.0193 18.545 37.1131 18.4509 37.1131 18.3353C37.1131 18.2193 37.0191 18.1255 36.9034 18.1255C36.7874 18.1255 36.6936 18.2196 36.6936 18.3353C36.6936 18.4512 36.7874 18.545 36.9034 18.545Z" fill="#F4D178"/>
<path d="M38.0161 18.4492C38.0792 18.4492 38.1303 18.398 38.1303 18.3349C38.1303 18.2718 38.0792 18.2207 38.0161 18.2207C37.953 18.2207 37.9019 18.2718 37.9019 18.3349C37.9019 18.398 37.953 18.4492 38.0161 18.4492Z" fill="#F4D178"/>
<path d="M13.5357 19.5743C13.6055 19.5743 13.6622 19.5176 13.6622 19.4478C13.6622 19.378 13.6055 19.3213 13.5357 19.3213C13.4659 19.3213 13.4092 19.378 13.4092 19.4478C13.4092 19.5176 13.4659 19.5743 13.5357 19.5743Z" fill="#F4D178"/>
<path d="M14.6483 19.6699C14.771 19.6699 14.8703 19.5706 14.8703 19.4476C14.8703 19.3249 14.771 19.2256 14.6483 19.2256C14.5256 19.2256 14.4263 19.3249 14.4263 19.4476C14.426 19.5703 14.5256 19.6699 14.6483 19.6699Z" fill="#F4D178"/>
<path d="M15.7612 19.7562C15.9315 19.7562 16.0697 19.618 16.0697 19.4477C16.0697 19.2773 15.9315 19.1392 15.7612 19.1392C15.5908 19.1392 15.4526 19.2773 15.4526 19.4477C15.4523 19.618 15.5905 19.7562 15.7612 19.7562Z" fill="#F4D178"/>
<path d="M16.8737 19.8304C17.0849 19.8304 17.2564 19.6592 17.2564 19.4477C17.2564 19.2364 17.0852 19.0649 16.8737 19.0649C16.6625 19.0649 16.491 19.2361 16.491 19.4477C16.4913 19.6589 16.6625 19.8304 16.8737 19.8304Z" fill="#F4D178"/>
<path d="M17.9864 19.8981C18.2353 19.8981 18.4369 19.6965 18.4369 19.4476C18.4369 19.1987 18.2353 18.9971 17.9864 18.9971C17.7375 18.9971 17.5359 19.1987 17.5359 19.4476C17.5359 19.6965 17.7378 19.8981 17.9864 19.8981Z" fill="#F4D178"/>
<path d="M19.0993 19.9534C19.3789 19.9534 19.6053 19.7267 19.6053 19.4474C19.6053 19.1678 19.3789 18.9414 19.0993 18.9414C18.8197 18.9414 18.5933 19.1678 18.5933 19.4474C18.5933 19.727 18.8197 19.9534 19.0993 19.9534Z" fill="#F4D178"/>
<path d="M20.2121 20.0001C20.5171 20.0001 20.7646 19.753 20.7646 19.4477C20.7646 19.1427 20.5174 18.8955 20.2121 18.8955C19.9068 18.8955 19.6597 19.1427 19.6597 19.4477C19.6597 19.7527 19.9071 20.0001 20.2121 20.0001Z" fill="#F4D178"/>
<path d="M21.3249 20.0374C21.6503 20.0374 21.9141 19.7736 21.9141 19.4482C21.9141 19.1227 21.6503 18.8589 21.3249 18.8589C20.9994 18.8589 20.7356 19.1227 20.7356 19.4482C20.7356 19.7733 20.9994 20.0374 21.3249 20.0374Z" fill="#F4D178"/>
<path d="M22.4376 20.0676C22.7803 20.0676 23.0578 19.7898 23.0578 19.4474C23.0578 19.105 22.78 18.8271 22.4376 18.8271C22.0952 18.8271 21.8174 19.105 21.8174 19.4474C21.8174 19.7901 22.0949 20.0676 22.4376 20.0676Z" fill="#F4D178"/>
<path d="M23.5505 20.0859C23.9032 20.0859 24.1891 19.7999 24.1891 19.4472C24.1891 19.0945 23.9032 18.8086 23.5505 18.8086C23.1978 18.8086 22.9119 19.0945 22.9119 19.4472C22.9119 19.7999 23.1978 20.0859 23.5505 20.0859Z" fill="#F4D178"/>
<path d="M24.6629 20.0988C25.0225 20.0988 25.3141 19.8072 25.3141 19.4476C25.3141 19.088 25.0225 18.7964 24.6629 18.7964C24.3032 18.7964 24.012 19.088 24.012 19.4476C24.012 19.8072 24.3035 20.0988 24.6629 20.0988Z" fill="#F4D178"/>
<path d="M25.7757 20.1047C26.1386 20.1047 26.4331 19.8105 26.4331 19.4474C26.4331 19.0845 26.1389 18.79 25.7757 18.79C25.4129 18.79 25.1184 19.0842 25.1184 19.4474C25.1187 19.8105 25.4129 20.1047 25.7757 20.1047Z" fill="#F4D178"/>
<path d="M26.8885 20.1017C27.2499 20.1017 27.5426 19.809 27.5426 19.4476C27.5426 19.0862 27.2499 18.7935 26.8885 18.7935C26.5271 18.7935 26.2344 19.0862 26.2344 19.4476C26.2344 19.809 26.5271 20.1017 26.8885 20.1017Z" fill="#F4D178"/>
<path d="M28.0012 20.0899C28.3556 20.0899 28.6431 19.8024 28.6431 19.448C28.6431 19.0936 28.3556 18.8062 28.0012 18.8062C27.6468 18.8062 27.3594 19.0936 27.3594 19.448C27.3594 19.8024 27.6468 20.0899 28.0012 20.0899Z" fill="#F4D178"/>
<path d="M29.1141 20.071C29.4583 20.071 29.7373 19.792 29.7373 19.4479C29.7373 19.1037 29.4583 18.8247 29.1141 18.8247C28.77 18.8247 28.491 19.1037 28.491 19.4479C28.4907 19.7917 28.77 20.071 29.1141 20.071Z" fill="#F4D178"/>
<path d="M30.227 20.0431C30.5559 20.0431 30.8224 19.7764 30.8224 19.4474C30.8224 19.1185 30.5557 18.8521 30.227 18.8521C29.8983 18.8521 29.6316 19.1188 29.6316 19.4474C29.6313 19.7764 29.898 20.0431 30.227 20.0431Z" fill="#F4D178"/>
<path d="M31.3398 20.0093C31.6501 20.0093 31.9013 19.7577 31.9013 19.4477C31.9013 19.1375 31.6498 18.8862 31.3398 18.8862C31.0296 18.8862 30.7783 19.1378 30.7783 19.4477C30.778 19.758 31.0296 20.0093 31.3398 20.0093Z" fill="#F4D178"/>
<path d="M32.4521 19.9633C32.7367 19.9633 32.9675 19.7325 32.9675 19.448C32.9675 19.1634 32.7367 18.9326 32.4521 18.9326C32.1676 18.9326 31.9368 19.1634 31.9368 19.448C31.9371 19.7325 32.1676 19.9633 32.4521 19.9633Z" fill="#F4D178"/>
<path d="M33.5651 19.9075C33.8189 19.9075 34.0249 19.7015 34.0249 19.4476C34.0249 19.1938 33.8189 18.9878 33.5651 18.9878C33.3112 18.9878 33.1052 19.1938 33.1052 19.4476C33.1055 19.7015 33.3112 19.9075 33.5651 19.9075Z" fill="#F4D178"/>
<path d="M34.6777 19.8427C34.8959 19.8427 35.0727 19.666 35.0727 19.4477C35.0727 19.2295 34.8959 19.0527 34.6777 19.0527C34.4595 19.0527 34.2827 19.2295 34.2827 19.4477C34.2827 19.666 34.4595 19.8427 34.6777 19.8427Z" fill="#F4D178"/>
<path d="M35.7905 19.7715C35.9693 19.7715 36.1145 19.6263 36.1145 19.4475C36.1145 19.2687 35.9693 19.1235 35.7905 19.1235C35.6115 19.1235 35.4666 19.2684 35.4666 19.4475C35.4666 19.6266 35.6115 19.7715 35.7905 19.7715Z" fill="#F4D178"/>
<path d="M36.9033 19.688C37.0363 19.688 37.1441 19.5802 37.1441 19.4473C37.1441 19.3143 37.0363 19.2065 36.9033 19.2065C36.7704 19.2065 36.6626 19.3143 36.6626 19.4473C36.6626 19.5802 36.7704 19.688 36.9033 19.688Z" fill="#F4D178"/>
<path d="M13.5356 20.7113C13.619 20.7113 13.6866 20.6436 13.6866 20.5602C13.6866 20.4768 13.619 20.4092 13.5356 20.4092C13.4521 20.4092 13.3845 20.4768 13.3845 20.5602C13.3845 20.6436 13.4521 20.7113 13.5356 20.7113Z" fill="#F4D178"/>
<path d="M14.6484 20.8037C14.7831 20.8037 14.8921 20.6944 14.8921 20.5601C14.8921 20.4257 14.7828 20.3164 14.6484 20.3164C14.5138 20.3164 14.4048 20.4257 14.4048 20.5601C14.4048 20.6944 14.5138 20.8037 14.6484 20.8037Z" fill="#F4D178"/>
<path d="M15.761 20.8902C15.9434 20.8902 16.0912 20.7424 16.0912 20.5601C16.0912 20.3778 15.9434 20.23 15.761 20.23C15.5787 20.23 15.4309 20.3778 15.4309 20.5601C15.4309 20.7424 15.5787 20.8902 15.761 20.8902Z" fill="#F4D178"/>
<path d="M16.8736 20.9644C17.0969 20.9644 17.2779 20.7834 17.2779 20.5601C17.2779 20.3368 17.0969 20.1558 16.8736 20.1558C16.6503 20.1558 16.4692 20.3368 16.4692 20.5601C16.4692 20.7834 16.6503 20.9644 16.8736 20.9644Z" fill="#F4D178"/>
<path d="M17.9865 21.0291C18.2454 21.0291 18.4554 20.8192 18.4554 20.5602C18.4554 20.3012 18.2454 20.0913 17.9865 20.0913C17.7275 20.0913 17.5176 20.3012 17.5176 20.5602C17.5176 20.8192 17.7275 21.0291 17.9865 21.0291Z" fill="#F4D178"/>
<path d="M19.0992 21.088C19.3904 21.088 19.6268 20.8516 19.6268 20.5603C19.6268 20.2688 19.3904 20.0327 19.0992 20.0327C18.8079 20.0327 18.5715 20.2691 18.5715 20.5603C18.5715 20.8516 18.8079 21.088 19.0992 21.088Z" fill="#F4D178"/>
<path d="M20.212 21.1344C20.5289 21.1344 20.7857 20.8775 20.7857 20.5606C20.7857 20.2437 20.5289 19.9868 20.212 19.9868C19.8951 19.9868 19.6382 20.2437 19.6382 20.5606C19.6382 20.8775 19.8951 21.1344 20.212 21.1344Z" fill="#F4D178"/>
<path d="M21.3248 21.1715C21.6622 21.1715 21.9356 20.898 21.9356 20.5606C21.9356 20.2232 21.6622 19.9497 21.3248 19.9497C20.9873 19.9497 20.7139 20.2232 20.7139 20.5606C20.7139 20.898 20.9873 21.1715 21.3248 21.1715Z" fill="#F4D178"/>
<path d="M22.4377 21.1987C22.7904 21.1987 23.0763 20.9127 23.0763 20.56C23.0763 20.2073 22.7904 19.9214 22.4377 19.9214C22.085 19.9214 21.7991 20.2073 21.7991 20.56C21.7991 20.9127 22.085 21.1987 22.4377 21.1987Z" fill="#F4D178"/>
<path d="M23.5504 21.2175C23.9132 21.2175 24.2077 20.9233 24.2077 20.5602C24.2077 20.197 23.9135 19.9028 23.5504 19.9028C23.1873 19.9028 22.8931 20.197 22.8931 20.5602C22.8931 20.923 23.1873 21.2175 23.5504 21.2175Z" fill="#F4D178"/>
<path d="M24.663 21.2298C25.0328 21.2298 25.3326 20.93 25.3326 20.5602C25.3326 20.1904 25.0328 19.8906 24.663 19.8906C24.2932 19.8906 23.9934 20.1904 23.9934 20.5602C23.9934 20.93 24.2932 21.2298 24.663 21.2298Z" fill="#F4D178"/>
<path d="M25.7756 21.2358C26.1487 21.2358 26.4513 20.9334 26.4513 20.56C26.4513 20.1867 26.1487 19.8843 25.7756 19.8843C25.4025 19.8843 25.0999 20.1869 25.0999 20.56C25.0999 20.9331 25.4025 21.2358 25.7756 21.2358Z" fill="#F4D178"/>
<path d="M26.8886 21.2326C27.2602 21.2326 27.5611 20.9313 27.5611 20.56C27.5611 20.1884 27.2599 19.8872 26.8886 19.8872C26.517 19.8872 26.2161 20.1884 26.2161 20.56C26.2161 20.9316 26.517 21.2326 26.8886 21.2326Z" fill="#F4D178"/>
<path d="M28.0013 21.2209C28.366 21.2209 28.6616 20.9253 28.6616 20.5606C28.6616 20.196 28.366 19.9004 28.0013 19.9004C27.6367 19.9004 27.3411 20.196 27.3411 20.5606C27.3411 20.9253 27.6367 21.2209 28.0013 21.2209Z" fill="#F4D178"/>
<path d="M29.1143 21.2051C29.4704 21.2051 29.759 20.9164 29.759 20.5603C29.759 20.2042 29.4704 19.9155 29.1143 19.9155C28.7581 19.9155 28.4695 20.2042 28.4695 20.5603C28.4692 20.9164 28.7581 21.2051 29.1143 21.2051Z" fill="#F4D178"/>
<path d="M30.2269 21.1774C30.5677 21.1774 30.8439 20.9011 30.8439 20.5604C30.8439 20.2196 30.5677 19.9434 30.2269 19.9434C29.8861 19.9434 29.6099 20.2196 29.6099 20.5604C29.6099 20.9011 29.8861 21.1774 30.2269 21.1774Z" fill="#F4D178"/>
<path d="M31.3397 21.1404C31.6602 21.1404 31.9199 20.8807 31.9199 20.5602C31.9199 20.2397 31.6602 19.98 31.3397 19.98C31.0192 19.98 30.7595 20.2397 30.7595 20.5602C30.7595 20.8807 31.0192 21.1404 31.3397 21.1404Z" fill="#F4D178"/>
<path d="M32.4523 21.0974C32.7488 21.0974 32.9892 20.8569 32.9892 20.5604C32.9892 20.2639 32.7488 20.0234 32.4523 20.0234C32.1557 20.0234 31.9153 20.2639 31.9153 20.5604C31.9156 20.8569 32.1557 21.0974 32.4523 21.0974Z" fill="#F4D178"/>
<path d="M33.565 21.042C33.8308 21.042 34.0464 20.8264 34.0464 20.5606C34.0464 20.2947 33.8308 20.0791 33.565 20.0791C33.2991 20.0791 33.0835 20.2947 33.0835 20.5606C33.0835 20.8264 33.2991 21.042 33.565 21.042Z" fill="#F4D178"/>
<path d="M34.6778 20.9797C34.9095 20.9797 35.0973 20.7918 35.0973 20.5602C35.0973 20.3285 34.9095 20.1406 34.6778 20.1406C34.4461 20.1406 34.2583 20.3285 34.2583 20.5602C34.2583 20.7918 34.4461 20.9797 34.6778 20.9797Z" fill="#F4D178"/>
<path d="M35.7907 20.9061C35.9815 20.9061 36.1363 20.7512 36.1363 20.5605C36.1363 20.3697 35.9815 20.2148 35.7907 20.2148C35.5999 20.2148 35.4451 20.3697 35.4451 20.5605C35.4451 20.7512 35.5999 20.9061 35.7907 20.9061Z" fill="#F4D178"/>
<path d="M36.9032 20.8226C37.0481 20.8226 37.1656 20.7051 37.1656 20.5602C37.1656 20.4153 37.0481 20.2979 36.9032 20.2979C36.7583 20.2979 36.6409 20.4153 36.6409 20.5602C36.6409 20.7051 36.7583 20.8226 36.9032 20.8226Z" fill="#F4D178"/>
<path d="M12.4227 21.7317C12.4552 21.7317 12.4815 21.7054 12.4815 21.673C12.4815 21.6406 12.4552 21.6143 12.4227 21.6143C12.3903 21.6143 12.364 21.6406 12.364 21.673C12.364 21.7054 12.3903 21.7317 12.4227 21.7317Z" fill="#F4D178"/>
<path d="M13.5357 21.837C13.6259 21.837 13.6993 21.7636 13.6993 21.6734C13.6993 21.5831 13.6259 21.5098 13.5357 21.5098C13.4454 21.5098 13.3721 21.5831 13.3721 21.6734C13.3721 21.7636 13.4454 21.837 13.5357 21.837Z" fill="#F4D178"/>
<path d="M14.6483 21.9323C14.7914 21.9323 14.9074 21.8164 14.9074 21.6732C14.9074 21.53 14.7914 21.4141 14.6483 21.4141C14.5051 21.4141 14.3892 21.53 14.3892 21.6732C14.3892 21.8164 14.5051 21.9323 14.6483 21.9323Z" fill="#F4D178"/>
<path d="M15.7611 22.0154C15.9501 22.0154 16.1035 21.862 16.1035 21.673C16.1035 21.4839 15.9501 21.3306 15.7611 21.3306C15.5721 21.3306 15.4187 21.4839 15.4187 21.673C15.4184 21.862 15.5718 22.0154 15.7611 22.0154Z" fill="#F4D178"/>
<path d="M16.8736 22.09C17.1036 22.09 17.2902 21.9037 17.2902 21.6734C17.2902 21.4432 17.1038 21.2568 16.8736 21.2568C16.6437 21.2568 16.457 21.4432 16.457 21.6734C16.4573 21.9034 16.6437 22.09 16.8736 22.09Z" fill="#F4D178"/>
<path d="M17.9866 22.1577C18.2542 22.1577 18.471 21.941 18.471 21.6733C18.471 21.4057 18.2542 21.189 17.9866 21.189C17.719 21.189 17.5022 21.406 17.5022 21.6733C17.5022 21.941 17.719 22.1577 17.9866 22.1577Z" fill="#F4D178"/>
<path d="M19.0992 22.2131C19.3975 22.2131 19.6391 21.9712 19.6391 21.6732C19.6391 21.3749 19.3975 21.1333 19.0992 21.1333C18.8009 21.1333 18.5593 21.3752 18.5593 21.6732C18.5593 21.9715 18.8009 22.2131 19.0992 22.2131Z" fill="#F4D178"/>
<path d="M20.2121 22.2591C20.5358 22.2591 20.7984 21.9968 20.7984 21.6728C20.7984 21.3488 20.5358 21.0864 20.2121 21.0864C19.8884 21.0864 19.6257 21.3491 19.6257 21.6728C19.6257 21.9965 19.8884 22.2591 20.2121 22.2591Z" fill="#F4D178"/>
<path d="M21.3249 22.2966C21.669 22.2966 21.948 22.0176 21.948 21.6734C21.948 21.3293 21.669 21.0503 21.3249 21.0503C20.9807 21.0503 20.7014 21.3293 20.7014 21.6734C20.7014 22.0176 20.9807 22.2966 21.3249 22.2966Z" fill="#F4D178"/>
<path d="M22.4375 22.3239C22.7972 22.3239 23.0887 22.0323 23.0887 21.6727C23.0887 21.313 22.7972 21.0215 22.4375 21.0215C22.0779 21.0215 21.7866 21.313 21.7866 21.6727C21.7863 22.0326 22.0779 22.3239 22.4375 22.3239Z" fill="#F4D178"/>
<path d="M23.5505 22.3426C23.9203 22.3426 24.2201 22.0429 24.2201 21.673C24.2201 21.3032 23.9203 21.0034 23.5505 21.0034C23.1806 21.0034 22.8809 21.3032 22.8809 21.673C22.8809 22.0429 23.1806 22.3426 23.5505 22.3426Z" fill="#F4D178"/>
<path d="M24.6628 22.355C25.0394 22.355 25.3447 22.0497 25.3447 21.6731C25.3447 21.2965 25.0394 20.9912 24.6628 20.9912C24.2862 20.9912 23.981 21.2965 23.981 21.6731C23.981 22.0497 24.2862 22.355 24.6628 22.355Z" fill="#F4D178"/>
<path d="M25.7757 22.3585C26.154 22.3585 26.4608 22.0517 26.4608 21.6734C26.4608 21.295 26.154 20.9883 25.7757 20.9883C25.3973 20.9883 25.0906 21.295 25.0906 21.6734C25.0909 22.0517 25.3973 22.3585 25.7757 22.3585Z" fill="#F4D178"/>
<path d="M26.8884 22.355C27.265 22.355 27.5703 22.0497 27.5703 21.6731C27.5703 21.2965 27.265 20.9912 26.8884 20.9912C26.5118 20.9912 26.2065 21.2965 26.2065 21.6731C26.2065 22.0497 26.5118 22.355 26.8884 22.355Z" fill="#F4D178"/>
<path d="M28.0014 22.3453C28.373 22.3453 28.6739 22.0441 28.6739 21.6728C28.6739 21.3012 28.3727 21 28.0014 21C27.6301 21 27.3289 21.3012 27.3289 21.6728C27.3286 22.0441 27.6298 22.3453 28.0014 22.3453Z" fill="#F4D178"/>
<path d="M29.1141 22.3273C29.4755 22.3273 29.7682 22.0346 29.7682 21.6732C29.7682 21.3118 29.4752 21.019 29.1141 21.019C28.7527 21.019 28.46 21.3118 28.46 21.6732C28.46 22.0343 28.7527 22.3273 29.1141 22.3273Z" fill="#F4D178"/>
<path d="M30.227 22.3026C30.5746 22.3026 30.8566 22.0207 30.8566 21.673C30.8566 21.3254 30.5746 21.0435 30.227 21.0435C29.8793 21.0435 29.5974 21.3254 29.5974 21.673C29.5974 22.021 29.8793 22.3026 30.227 22.3026Z" fill="#F4D178"/>
<path d="M31.3398 22.266C31.667 22.266 31.9323 22.0007 31.9323 21.6735C31.9323 21.3463 31.667 21.0811 31.3398 21.0811C31.0126 21.0811 30.7473 21.3463 30.7473 21.6735C30.7473 22.0007 31.0126 22.266 31.3398 22.266Z" fill="#F4D178"/>
<path d="M32.4521 22.222C32.7553 22.222 33.0013 21.976 33.0013 21.6728C33.0013 21.3695 32.7553 21.1235 32.4521 21.1235C32.1488 21.1235 31.9028 21.3695 31.9028 21.6728C31.9028 21.976 32.1488 22.222 32.4521 22.222Z" fill="#F4D178"/>
<path d="M33.565 22.1667C33.8376 22.1667 34.0588 21.9455 34.0588 21.6729C34.0588 21.4004 33.8376 21.1792 33.565 21.1792C33.2924 21.1792 33.0713 21.4004 33.0713 21.6729C33.0713 21.9455 33.2924 22.1667 33.565 22.1667Z" fill="#F4D178"/>
<path d="M34.6777 22.1054C34.9164 22.1054 35.1098 21.912 35.1098 21.6733C35.1098 21.4346 34.9164 21.2412 34.6777 21.2412C34.439 21.2412 34.2456 21.4346 34.2456 21.6733C34.2456 21.912 34.439 22.1054 34.6777 22.1054Z" fill="#F4D178"/>
<path d="M35.7905 22.0312C35.9883 22.0312 36.1484 21.8708 36.1484 21.6733C36.1484 21.4755 35.988 21.3154 35.7905 21.3154C35.5927 21.3154 35.4326 21.4758 35.4326 21.6733C35.4326 21.8708 35.5927 22.0312 35.7905 22.0312Z" fill="#F4D178"/>
<path d="M36.9033 21.9477C37.055 21.9477 37.1779 21.8247 37.1779 21.6731C37.1779 21.5214 37.055 21.3984 36.9033 21.3984C36.7516 21.3984 36.6287 21.5214 36.6287 21.6731C36.6287 21.8247 36.7516 21.9477 36.9033 21.9477Z" fill="#F4D178"/>
<path d="M12.4227 22.8474C12.4569 22.8474 12.4844 22.8199 12.4844 22.7858C12.4844 22.7516 12.4566 22.7241 12.4227 22.7241C12.3885 22.7241 12.3611 22.7516 12.3611 22.7858C12.3611 22.8199 12.3885 22.8474 12.4227 22.8474Z" fill="#F4D178"/>
<path d="M13.5355 22.9557C13.6292 22.9557 13.7052 22.8797 13.7052 22.7859C13.7052 22.6922 13.6292 22.6162 13.5355 22.6162C13.4417 22.6162 13.3657 22.6922 13.3657 22.7859C13.3657 22.8797 13.4417 22.9557 13.5355 22.9557Z" fill="#F4D178"/>
<path d="M14.6483 23.0481C14.7932 23.0481 14.9107 22.9307 14.9107 22.7858C14.9107 22.6409 14.7932 22.5234 14.6483 22.5234C14.5034 22.5234 14.386 22.6409 14.386 22.7858C14.386 22.9307 14.5034 23.0481 14.6483 23.0481Z" fill="#F4D178"/>
<path d="M15.7611 23.1317C15.952 23.1317 16.1068 22.9769 16.1068 22.786C16.1068 22.5952 15.952 22.4404 15.7611 22.4404C15.5703 22.4404 15.4155 22.5952 15.4155 22.786C15.4155 22.9769 15.5703 23.1317 15.7611 23.1317Z" fill="#F4D178"/>
<path d="M16.8737 23.2092C17.1071 23.2092 17.2964 23.0199 17.2964 22.7865C17.2964 22.5531 17.1071 22.3638 16.8737 22.3638C16.6402 22.3638 16.4509 22.5531 16.4509 22.7865C16.4509 23.0199 16.6402 23.2092 16.8737 23.2092Z" fill="#F4D178"/>
<path d="M17.9864 23.2735C18.2557 23.2735 18.474 23.0552 18.474 22.7859C18.474 22.5166 18.2557 22.2983 17.9864 22.2983C17.7171 22.2983 17.4988 22.5166 17.4988 22.7859C17.4988 23.0552 17.7171 23.2735 17.9864 23.2735Z" fill="#F4D178"/>
<path d="M19.0993 23.3289C19.3993 23.3289 19.6424 23.0858 19.6424 22.7858C19.6424 22.4857 19.3993 22.2427 19.0993 22.2427C18.7992 22.2427 18.5562 22.4857 18.5562 22.7858C18.5562 23.0855 18.7992 23.3289 19.0993 23.3289Z" fill="#F4D178"/>
<path d="M20.2121 23.3753C20.5375 23.3753 20.8013 23.1115 20.8013 22.786C20.8013 22.4606 20.5375 22.1968 20.2121 22.1968C19.8866 22.1968 19.6228 22.4606 19.6228 22.786C19.6228 23.1115 19.8866 23.3753 20.2121 23.3753Z" fill="#F4D178"/>
<path d="M21.3248 23.4124C21.6708 23.4124 21.9512 23.1319 21.9512 22.786C21.9512 22.4401 21.6708 22.1597 21.3248 22.1597C20.9789 22.1597 20.6985 22.4401 20.6985 22.786C20.6985 23.1319 20.9789 23.4124 21.3248 23.4124Z" fill="#F4D178"/>
<path d="M22.4376 23.4401C22.7988 23.4401 23.0917 23.1472 23.0917 22.786C23.0917 22.4247 22.7988 22.1318 22.4376 22.1318C22.0763 22.1318 21.7834 22.4247 21.7834 22.786C21.7834 23.1472 22.0763 23.4401 22.4376 23.4401Z" fill="#F4D178"/>
<path d="M23.5505 23.4589C23.9221 23.4589 24.2233 23.1577 24.2233 22.7861C24.2233 22.4145 23.9221 22.1133 23.5505 22.1133C23.1789 22.1133 22.8777 22.4145 22.8777 22.7861C22.8777 23.1577 23.1789 23.4589 23.5505 23.4589Z" fill="#F4D178"/>
<path d="M24.6629 23.4708C25.0412 23.4708 25.348 23.164 25.348 22.7857C25.348 22.4073 25.0412 22.1006 24.6629 22.1006C24.2845 22.1006 23.9778 22.4073 23.9778 22.7857C23.9781 23.1643 24.2845 23.4708 24.6629 23.4708Z" fill="#F4D178"/>
<path d="M25.7757 23.4737C26.1556 23.4737 26.4637 23.1656 26.4637 22.7857C26.4637 22.4057 26.1556 22.0977 25.7757 22.0977C25.3957 22.0977 25.0876 22.4057 25.0876 22.7857C25.0876 23.1656 25.3957 23.4737 25.7757 23.4737Z" fill="#F4D178"/>
<path d="M26.8885 23.4708C27.2668 23.4708 27.5735 23.164 27.5735 22.7857C27.5735 22.4073 27.2668 22.1006 26.8885 22.1006C26.5101 22.1006 26.2034 22.4073 26.2034 22.7857C26.2034 23.1643 26.5101 23.4708 26.8885 23.4708Z" fill="#F4D178"/>
<path d="M28.0014 23.4613C28.3746 23.4613 28.6772 23.1588 28.6772 22.7856C28.6772 22.4124 28.3746 22.1099 28.0014 22.1099C27.6282 22.1099 27.3257 22.4124 27.3257 22.7856C27.3257 23.1588 27.6282 23.4613 28.0014 23.4613Z" fill="#F4D178"/>
<path d="M29.1141 23.4426C29.477 23.4426 29.7715 23.1484 29.7715 22.7853C29.7715 22.4224 29.4773 22.1279 29.1141 22.1279C28.7513 22.1279 28.4568 22.4221 28.4568 22.7853C28.4568 23.1484 28.751 23.4426 29.1141 23.4426Z" fill="#F4D178"/>
<path d="M30.227 23.4183C30.5763 23.4183 30.8595 23.1351 30.8595 22.7858C30.8595 22.4365 30.5763 22.1533 30.227 22.1533C29.8777 22.1533 29.5945 22.4365 29.5945 22.7858C29.5945 23.1351 29.8777 23.4183 30.227 23.4183Z" fill="#F4D178"/>
<path d="M31.3398 23.3847C31.6705 23.3847 31.9384 23.1168 31.9384 22.7861C31.9384 22.4554 31.6705 22.1875 31.3398 22.1875C31.0091 22.1875 30.7412 22.4554 30.7412 22.7861C30.7412 23.1168 31.0091 23.3847 31.3398 23.3847Z" fill="#F4D178"/>
<path d="M32.5367 23.332C32.8378 23.2828 33.0421 22.9989 32.9929 22.6978C32.9438 22.3967 32.6598 22.1924 32.3587 22.2416C32.0576 22.2907 31.8533 22.5747 31.9025 22.8758C31.9516 23.1769 32.2356 23.3812 32.5367 23.332Z" fill="#F4D178"/>
<path d="M33.5651 23.2859C33.8411 23.2859 34.0649 23.0621 34.0649 22.786C34.0649 22.5099 33.8411 22.2861 33.5651 22.2861C33.289 22.2861 33.0652 22.5099 33.0652 22.786C33.0652 23.0621 33.289 23.2859 33.5651 23.2859Z" fill="#F4D178"/>
<path d="M34.6777 23.2211C34.9179 23.2211 35.1127 23.0263 35.1127 22.7861C35.1127 22.5458 34.9179 22.3511 34.6777 22.3511C34.4374 22.3511 34.2427 22.5458 34.2427 22.7861C34.2427 23.0263 34.4374 23.2211 34.6777 23.2211Z" fill="#F4D178"/>
<path d="M35.7905 23.147C35.9898 23.147 36.1516 22.9854 36.1516 22.7859C36.1516 22.5864 35.9901 22.4248 35.7905 22.4248C35.591 22.4248 35.4294 22.5864 35.4294 22.7859C35.4294 22.9854 35.591 23.147 35.7905 23.147Z" fill="#F4D178"/>
<path d="M36.9033 23.0664C37.0584 23.0664 37.1841 22.9408 37.1841 22.7856C37.1841 22.6305 37.0584 22.5049 36.9033 22.5049C36.7482 22.5049 36.6226 22.6305 36.6226 22.7856C36.6226 22.9408 36.7482 23.0664 36.9033 23.0664Z" fill="#F4D178"/>
<path d="M38.0163 22.9739C38.1203 22.9739 38.2044 22.8895 38.2044 22.7858C38.2044 22.6821 38.1203 22.5977 38.0163 22.5977C37.9123 22.5977 37.8281 22.6821 37.8281 22.7858C37.8281 22.8895 37.9123 22.9739 38.0163 22.9739Z" fill="#F4D178"/>
<path d="M39.1287 22.8696C39.1748 22.8696 39.2119 22.8323 39.2119 22.7864C39.2119 22.7405 39.1745 22.7031 39.1287 22.7031C39.0828 22.7031 39.0454 22.7405 39.0454 22.7864C39.0454 22.8323 39.0828 22.8696 39.1287 22.8696Z" fill="#F4D178"/>
<path d="M12.4227 23.9573C12.4552 23.9573 12.4815 23.931 12.4815 23.8986C12.4815 23.8661 12.4552 23.8398 12.4227 23.8398C12.3903 23.8398 12.364 23.8661 12.364 23.8986C12.364 23.931 12.3903 23.9573 12.4227 23.9573Z" fill="#F4D178"/>
<path d="M13.5357 24.0621C13.6259 24.0621 13.6993 23.9887 13.6993 23.8985C13.6993 23.8082 13.6259 23.7349 13.5357 23.7349C13.4454 23.7349 13.3721 23.8082 13.3721 23.8985C13.3721 23.989 13.4454 24.0621 13.5357 24.0621Z" fill="#F4D178"/>
<path d="M14.6483 24.1579C14.7914 24.1579 14.9074 24.0419 14.9074 23.8988C14.9074 23.7556 14.7914 23.6396 14.6483 23.6396C14.5051 23.6396 14.3892 23.7556 14.3892 23.8988C14.3892 24.0416 14.5051 24.1579 14.6483 24.1579Z" fill="#F4D178"/>
<path d="M15.7611 24.2409C15.9501 24.2409 16.1035 24.0876 16.1035 23.8986C16.1035 23.7095 15.9501 23.5562 15.7611 23.5562C15.5721 23.5562 15.4187 23.7095 15.4187 23.8986C15.4184 24.0876 15.5718 24.2409 15.7611 24.2409Z" fill="#F4D178"/>
<path d="M16.8736 24.3151C17.1036 24.3151 17.2902 24.1287 17.2902 23.8985C17.2902 23.6686 17.1038 23.4819 16.8736 23.4819C16.6437 23.4819 16.457 23.6683 16.457 23.8985C16.4573 24.1287 16.6437 24.3151 16.8736 24.3151Z" fill="#F4D178"/>
<path d="M17.9866 24.3833C18.2541 24.3833 18.471 24.1665 18.471 23.8989C18.471 23.6314 18.2541 23.4146 17.9866 23.4146C17.7191 23.4146 17.5022 23.6314 17.5022 23.8989C17.5022 24.1665 17.7191 24.3833 17.9866 24.3833Z" fill="#F4D178"/>
<path d="M19.0992 24.4387C19.3975 24.4387 19.6391 24.1971 19.6391 23.8988C19.6391 23.6005 19.3975 23.3589 19.0992 23.3589C18.8009 23.3589 18.5593 23.6008 18.5593 23.8988C18.5593 24.1968 18.8009 24.4387 19.0992 24.4387Z" fill="#F4D178"/>
<path d="M20.2121 24.4847C20.5358 24.4847 20.7984 24.2223 20.7984 23.8984C20.7984 23.5744 20.5358 23.312 20.2121 23.312C19.8884 23.312 19.6257 23.5744 19.6257 23.8984C19.6257 24.2223 19.8884 24.4847 20.2121 24.4847Z" fill="#F4D178"/>
<path d="M21.3248 24.5222C21.669 24.5222 21.948 24.2432 21.948 23.899C21.948 23.5549 21.669 23.2759 21.3248 23.2759C20.9807 23.2759 20.7017 23.5549 20.7017 23.899C20.7017 24.2432 20.9807 24.5222 21.3248 24.5222Z" fill="#F4D178"/>
<path d="M22.4375 24.5495C22.7972 24.5495 23.0887 24.2579 23.0887 23.8983C23.0887 23.5386 22.7972 23.2471 22.4375 23.2471C22.0779 23.2471 21.7866 23.5386 21.7866 23.8983C21.7863 24.2579 22.0779 24.5495 22.4375 24.5495Z" fill="#F4D178"/>
<path d="M23.5505 24.5682C23.9203 24.5682 24.2201 24.2685 24.2201 23.8986C24.2201 23.5287 23.9203 23.229 23.5505 23.229C23.1806 23.229 22.8809 23.5287 22.8809 23.8986C22.8809 24.2685 23.1806 24.5682 23.5505 24.5682Z" fill="#F4D178"/>
<path d="M24.6628 24.5805C25.0394 24.5805 25.3447 24.2753 25.3447 23.8987C25.3447 23.5221 25.0394 23.2168 24.6628 23.2168C24.2862 23.2168 23.981 23.5221 23.981 23.8987C23.981 24.2753 24.2862 24.5805 24.6628 24.5805Z" fill="#F4D178"/>
<path d="M25.7757 24.5836C26.154 24.5836 26.4608 24.2768 26.4608 23.8985C26.4608 23.5201 26.154 23.2134 25.7757 23.2134C25.3973 23.2134 25.0906 23.5201 25.0906 23.8985C25.0909 24.2768 25.3973 24.5836 25.7757 24.5836Z" fill="#F4D178"/>
<path d="M26.8884 24.5805C27.265 24.5805 27.5703 24.2753 27.5703 23.8987C27.5703 23.5221 27.265 23.2168 26.8884 23.2168C26.5118 23.2168 26.2065 23.5221 26.2065 23.8987C26.2065 24.2753 26.5118 24.5805 26.8884 24.5805Z" fill="#F4D178"/>
<path d="M28.0014 24.5716C28.373 24.5716 28.6739 24.2704 28.6739 23.8991C28.6739 23.5275 28.3727 23.2266 28.0014 23.2266C27.6301 23.2266 27.3289 23.5278 27.3289 23.8991C27.3286 24.2704 27.6298 24.5716 28.0014 24.5716Z" fill="#F4D178"/>
<path d="M29.1141 24.5534C29.4755 24.5534 29.7682 24.2606 29.7682 23.8992C29.7682 23.5379 29.4752 23.2451 29.1141 23.2451C28.7527 23.2451 28.46 23.5379 28.46 23.8992C28.46 24.2603 28.7527 24.5534 29.1141 24.5534Z" fill="#F4D178"/>
<path d="M30.227 24.5282C30.5746 24.5282 30.8566 24.2463 30.8566 23.8986C30.8566 23.551 30.5746 23.269 30.227 23.269C29.8793 23.269 29.5974 23.551 29.5974 23.8986C29.5974 24.2466 29.8793 24.5282 30.227 24.5282Z" fill="#F4D178"/>
<path d="M31.3398 24.4911C31.667 24.4911 31.9323 24.2258 31.9323 23.8986C31.9323 23.5714 31.667 23.3062 31.3398 23.3062C31.0126 23.3062 30.7473 23.5714 30.7473 23.8986C30.7473 24.2261 31.0126 24.4911 31.3398 24.4911Z" fill="#F4D178"/>
<path d="M32.4521 24.4476C32.7554 24.4476 33.0013 24.2017 33.0013 23.8984C33.0013 23.595 32.7554 23.3491 32.4521 23.3491C32.1487 23.3491 31.9028 23.595 31.9028 23.8984C31.9028 24.2017 32.1487 24.4476 32.4521 24.4476Z" fill="#F4D178"/>
<path d="M33.565 24.3922C33.8377 24.3922 34.0588 24.1712 34.0588 23.8985C34.0588 23.6258 33.8377 23.4048 33.565 23.4048C33.2923 23.4048 33.0713 23.6258 33.0713 23.8985C33.0713 24.1712 33.2923 24.3922 33.565 24.3922Z" fill="#F4D178"/>
<path d="M34.6777 24.3305C34.9164 24.3305 35.1098 24.1371 35.1098 23.8984C35.1098 23.6597 34.9164 23.4663 34.6777 23.4663C34.439 23.4663 34.2456 23.6597 34.2456 23.8984C34.2456 24.1371 34.439 24.3305 34.6777 24.3305Z" fill="#F4D178"/>
<path d="M35.7905 24.2568C35.9883 24.2568 36.1484 24.0964 36.1484 23.8989C36.1484 23.7011 35.988 23.541 35.7905 23.541C35.5927 23.541 35.4326 23.7014 35.4326 23.8989C35.4326 24.0964 35.5927 24.2568 35.7905 24.2568Z" fill="#F4D178"/>
<path d="M36.9033 24.1733C37.055 24.1733 37.1779 24.0503 37.1779 23.8986C37.1779 23.747 37.055 23.624 36.9033 23.624C36.7516 23.624 36.6287 23.747 36.6287 23.8986C36.6287 24.0503 36.7516 24.1733 36.9033 24.1733Z" fill="#F4D178"/>
<path d="M38.0162 24.0808C38.1167 24.0808 38.1982 23.9993 38.1982 23.8988C38.1982 23.7983 38.1167 23.7168 38.0162 23.7168C37.9157 23.7168 37.8342 23.7983 37.8342 23.8988C37.8339 23.9993 37.9157 24.0808 38.0162 24.0808Z" fill="#F4D178"/>
<path d="M39.1287 23.979C39.1731 23.979 39.209 23.9431 39.209 23.8987C39.209 23.8543 39.1731 23.8184 39.1287 23.8184C39.0843 23.8184 39.0483 23.8543 39.0483 23.8987C39.0483 23.9431 39.0843 23.979 39.1287 23.979Z" fill="#F4D178"/>
<path d="M13.5356 25.1624C13.619 25.1624 13.6866 25.0948 13.6866 25.0114C13.6866 24.928 13.619 24.8604 13.5356 24.8604C13.4521 24.8604 13.3845 24.928 13.3845 25.0114C13.3845 25.0948 13.4521 25.1624 13.5356 25.1624Z" fill="#F4D178"/>
<path d="M14.6484 25.2549C14.7831 25.2549 14.8921 25.1456 14.8921 25.0112C14.8921 24.8768 14.7828 24.7676 14.6484 24.7676C14.5138 24.7676 14.4048 24.8768 14.4048 25.0112C14.4048 25.1456 14.5138 25.2549 14.6484 25.2549Z" fill="#F4D178"/>
<path d="M15.761 25.3414C15.9434 25.3414 16.0912 25.1936 16.0912 25.0113C16.0912 24.829 15.9434 24.6812 15.761 24.6812C15.5787 24.6812 15.4309 24.829 15.4309 25.0113C15.4309 25.1936 15.5787 25.3414 15.761 25.3414Z" fill="#F4D178"/>
<path d="M16.8736 25.4156C17.0969 25.4156 17.2779 25.2346 17.2779 25.0113C17.2779 24.788 17.0969 24.6069 16.8736 24.6069C16.6503 24.6069 16.4692 24.788 16.4692 25.0113C16.4692 25.2346 16.6503 25.4156 16.8736 25.4156Z" fill="#F4D178"/>
<path d="M17.9865 25.4803C18.2454 25.4803 18.4554 25.2703 18.4554 25.0114C18.4554 24.7524 18.2454 24.5425 17.9865 24.5425C17.7275 24.5425 17.5176 24.7524 17.5176 25.0114C17.5176 25.2703 17.7275 25.4803 17.9865 25.4803Z" fill="#F4D178"/>
<path d="M19.0992 25.5386C19.3904 25.5386 19.6268 25.3023 19.6268 25.011C19.6268 24.7197 19.3904 24.4834 19.0992 24.4834C18.8079 24.4834 18.5715 24.7197 18.5715 25.011C18.5715 25.3023 18.8079 25.5386 19.0992 25.5386Z" fill="#F4D178"/>
<path d="M20.212 25.5851C20.5289 25.5851 20.7857 25.3282 20.7857 25.0113C20.7857 24.6944 20.5289 24.4375 20.212 24.4375C19.8951 24.4375 19.6382 24.6944 19.6382 25.0113C19.6382 25.3282 19.8951 25.5851 20.212 25.5851Z" fill="#F4D178"/>
<path d="M21.3248 25.6226C21.6622 25.6226 21.9356 25.3492 21.9356 25.0118C21.9356 24.6743 21.6622 24.4009 21.3248 24.4009C20.9873 24.4009 20.7139 24.6743 20.7139 25.0118C20.7139 25.3489 20.9873 25.6226 21.3248 25.6226Z" fill="#F4D178"/>
<path d="M22.4377 25.6498C22.7904 25.6498 23.0763 25.3639 23.0763 25.0112C23.0763 24.6585 22.7904 24.3726 22.4377 24.3726C22.085 24.3726 21.7991 24.6585 21.7991 25.0112C21.7991 25.3639 22.085 25.6498 22.4377 25.6498Z" fill="#F4D178"/>
<path d="M23.5504 25.6692C23.9132 25.6692 24.2077 25.375 24.2077 25.0118C24.2077 24.649 23.9135 24.3545 23.5504 24.3545C23.1873 24.3545 22.8931 24.6487 22.8931 25.0118C22.8931 25.375 23.1873 25.6692 23.5504 25.6692Z" fill="#F4D178"/>
<path d="M24.663 25.681C25.0328 25.681 25.3326 25.3812 25.3326 25.0114C25.3326 24.6416 25.0328 24.3418 24.663 24.3418C24.2932 24.3418 23.9934 24.6416 23.9934 25.0114C23.9934 25.3812 24.2932 25.681 24.663 25.681Z" fill="#F4D178"/>
<path d="M25.7756 25.6874C26.1487 25.6874 26.4513 25.3848 26.4513 25.0117C26.4513 24.6386 26.1487 24.3359 25.7756 24.3359C25.4025 24.3359 25.0999 24.6386 25.0999 25.0117C25.0999 25.3848 25.4025 25.6874 25.7756 25.6874Z" fill="#F4D178"/>
<path d="M26.8886 25.6844C27.2602 25.6844 27.5611 25.3832 27.5611 25.0119C27.5611 24.6406 27.2599 24.3394 26.8886 24.3394C26.517 24.3394 26.2161 24.6406 26.2161 25.0119C26.2161 25.3832 26.517 25.6844 26.8886 25.6844Z" fill="#F4D178"/>
<path d="M28.0013 25.6711C28.366 25.6711 28.6616 25.3755 28.6616 25.0108C28.6616 24.6462 28.366 24.3506 28.0013 24.3506C27.6367 24.3506 27.3411 24.6462 27.3411 25.0108C27.3411 25.3755 27.6367 25.6711 28.0013 25.6711Z" fill="#F4D178"/>
<path d="M29.114 25.6528C29.4684 25.6528 29.7559 25.3654 29.7559 25.011C29.7559 24.6566 29.4684 24.3691 29.114 24.3691C28.7596 24.3691 28.4722 24.6563 28.4722 25.011C28.4722 25.3657 28.7596 25.6528 29.114 25.6528Z" fill="#F4D178"/>
<path d="M30.2269 25.6291C30.5678 25.6291 30.8439 25.3527 30.8439 25.012C30.8439 24.6711 30.5675 24.395 30.2269 24.395C29.8862 24.395 29.6099 24.6714 29.6099 25.012C29.6096 25.3527 29.8859 25.6291 30.2269 25.6291Z" fill="#F4D178"/>
<path d="M31.3397 25.5916C31.6602 25.5916 31.9199 25.3318 31.9199 25.0114C31.9199 24.6909 31.6602 24.4312 31.3397 24.4312C31.0192 24.4312 30.7595 24.6909 30.7595 25.0114C30.7595 25.3318 31.0192 25.5916 31.3397 25.5916Z" fill="#F4D178"/>
<path d="M32.4523 25.5485C32.7488 25.5485 32.9892 25.3081 32.9892 25.0116C32.9892 24.715 32.7488 24.4746 32.4523 24.4746C32.1557 24.4746 31.9153 24.715 31.9153 25.0116C31.9153 25.3081 32.1557 25.5485 32.4523 25.5485Z" fill="#F4D178"/>
<path d="M33.565 25.4932C33.8308 25.4932 34.0464 25.2776 34.0464 25.0117C34.0464 24.7459 33.8308 24.5303 33.565 24.5303C33.2991 24.5303 33.0835 24.7459 33.0835 25.0117C33.0838 25.2776 33.2991 25.4932 33.565 25.4932Z" fill="#F4D178"/>
<path d="M34.6778 25.4279C34.9081 25.4279 35.0944 25.2415 35.0944 25.0113C35.0944 24.7811 34.9081 24.5947 34.6778 24.5947C34.4479 24.5947 34.2612 24.7811 34.2612 25.0113C34.2612 25.2415 34.4479 25.4279 34.6778 25.4279Z" fill="#F4D178"/>
<path d="M35.7907 25.3568C35.9815 25.3568 36.1363 25.2019 36.1363 25.0111C36.1363 24.8204 35.9815 24.6655 35.7907 24.6655C35.5999 24.6655 35.4451 24.8204 35.4451 25.0111C35.4451 25.2019 35.5999 25.3568 35.7907 25.3568Z" fill="#F4D178"/>
<path d="M13.5357 26.2506C13.6055 26.2506 13.6622 26.1939 13.6622 26.1241C13.6622 26.0542 13.6055 25.9976 13.5357 25.9976C13.4659 25.9976 13.4092 26.0542 13.4092 26.1241C13.4092 26.1939 13.4659 26.2506 13.5357 26.2506Z" fill="#F4D178"/>
<path d="M14.6483 26.3464C14.771 26.3464 14.8703 26.2471 14.8703 26.1244C14.8703 26.0017 14.771 25.9023 14.6483 25.9023C14.5256 25.9023 14.4263 26.0017 14.4263 26.1244C14.426 26.2468 14.5256 26.3464 14.6483 26.3464Z" fill="#F4D178"/>
<path d="M15.7612 26.4324C15.9315 26.4324 16.0697 26.2943 16.0697 26.1239C16.0697 25.9536 15.9315 25.8154 15.7612 25.8154C15.5908 25.8154 15.4526 25.9536 15.4526 26.1239C15.4526 26.2943 15.5908 26.4324 15.7612 26.4324Z" fill="#F4D178"/>
<path d="M16.8737 26.5066C17.0849 26.5066 17.2564 26.3354 17.2564 26.1239C17.2564 25.9127 17.0852 25.7412 16.8737 25.7412C16.6625 25.7412 16.491 25.9124 16.491 26.1239C16.4913 26.3354 16.6625 26.5066 16.8737 26.5066Z" fill="#F4D178"/>
<path d="M17.9866 26.5716C18.2337 26.5716 18.4339 26.3712 18.4339 26.1243C18.4339 25.8772 18.2334 25.6768 17.9866 25.6768C17.7397 25.6768 17.5393 25.8772 17.5393 26.1243C17.5393 26.3712 17.7394 26.5716 17.9866 26.5716Z" fill="#F4D178"/>
<path d="M19.0993 26.6302C19.3789 26.6302 19.6053 26.4038 19.6053 26.1242C19.6053 25.8446 19.3789 25.6182 19.0993 25.6182C18.8197 25.6182 18.5933 25.8449 18.5933 26.1242C18.5933 26.4038 18.8197 26.6302 19.0993 26.6302Z" fill="#F4D178"/>
<path d="M20.2121 26.6762C20.5171 26.6762 20.7646 26.429 20.7646 26.1237C20.7646 25.8187 20.5174 25.5713 20.2121 25.5713C19.9068 25.5713 19.6597 25.8184 19.6597 26.1237C19.6597 26.4287 19.9071 26.6762 20.2121 26.6762Z" fill="#F4D178"/>
<path d="M21.3249 26.7127C21.6503 26.7127 21.9141 26.4489 21.9141 26.1234C21.9141 25.798 21.6503 25.5342 21.3249 25.5342C20.9994 25.5342 20.7356 25.798 20.7356 26.1234C20.7356 26.4489 20.9994 26.7127 21.3249 26.7127Z" fill="#F4D178"/>
<path d="M22.4376 26.7439C22.7803 26.7439 23.0578 26.466 23.0578 26.1237C23.0578 25.781 22.78 25.5034 22.4376 25.5034C22.0952 25.5034 21.8174 25.7813 21.8174 26.1237C21.8174 26.4663 22.0949 26.7439 22.4376 26.7439Z" fill="#F4D178"/>
<path d="M23.5505 26.7631C23.9032 26.7631 24.1891 26.4772 24.1891 26.1245C24.1891 25.7718 23.9032 25.4858 23.5505 25.4858C23.1978 25.4858 22.9119 25.7718 22.9119 26.1245C22.9119 26.4772 23.1978 26.7631 23.5505 26.7631Z" fill="#F4D178"/>
<path d="M24.6629 26.7751C25.0225 26.7751 25.3141 26.4835 25.3141 26.1239C25.3141 25.7642 25.0225 25.4727 24.6629 25.4727C24.3032 25.4727 24.012 25.7642 24.012 26.1239C24.012 26.4835 24.3035 26.7751 24.6629 26.7751Z" fill="#F4D178"/>
<path d="M25.7757 26.781C26.1386 26.781 26.4331 26.4868 26.4331 26.1236C26.4331 25.7605 26.1389 25.4663 25.7757 25.4663C25.4129 25.4663 25.1184 25.7605 25.1184 26.1236C25.1187 26.4868 25.4129 26.781 25.7757 26.781Z" fill="#F4D178"/>
<path d="M26.8885 26.778C27.2498 26.778 27.5426 26.4851 27.5426 26.1238C27.5426 25.7626 27.2498 25.4697 26.8885 25.4697C26.5272 25.4697 26.2344 25.7626 26.2344 26.1238C26.2344 26.4851 26.5272 26.778 26.8885 26.778Z" fill="#F4D178"/>
<path d="M28.0012 26.7661C28.3556 26.7661 28.6431 26.4789 28.6431 26.1243C28.6431 25.7699 28.3556 25.4824 28.0012 25.4824C27.6468 25.4824 27.3594 25.7699 27.3594 26.1243C27.3594 26.4789 27.6468 26.7661 28.0012 26.7661Z" fill="#F4D178"/>
<path d="M29.1141 26.7468C29.4583 26.7468 29.7373 26.4678 29.7373 26.1236C29.7373 25.7795 29.4583 25.5005 29.1141 25.5005C28.77 25.5005 28.491 25.7795 28.491 26.1236C28.491 26.4678 28.77 26.7468 29.1141 26.7468Z" fill="#F4D178"/>
<path d="M30.227 26.7196C30.5559 26.7196 30.8224 26.4529 30.8224 26.1242C30.8224 25.7955 30.5557 25.5288 30.227 25.5288C29.8983 25.5288 29.6316 25.7955 29.6316 26.1242C29.6316 26.4529 29.898 26.7196 30.227 26.7196Z" fill="#F4D178"/>
<path d="M31.3398 26.6865C31.6501 26.6865 31.9013 26.435 31.9013 26.125C31.9013 25.8147 31.6498 25.5635 31.3398 25.5635C31.0296 25.5635 30.7783 25.815 30.7783 26.125C30.778 26.435 31.0296 26.6865 31.3398 26.6865Z" fill="#F4D178"/>
<path d="M32.4521 26.6391C32.7367 26.6391 32.9675 26.4083 32.9675 26.1237C32.9675 25.8392 32.7367 25.6084 32.4521 25.6084C32.1676 25.6084 31.9368 25.8392 31.9368 26.1237C31.9371 26.4083 32.1676 26.6391 32.4521 26.6391Z" fill="#F4D178"/>
<path d="M33.6424 26.5847C33.893 26.5439 34.0631 26.3075 34.0222 26.0569C33.9814 25.8062 33.7451 25.6361 33.4944 25.677C33.2437 25.7179 33.0737 25.9542 33.1145 26.2048C33.1554 26.4555 33.3917 26.6256 33.6424 26.5847Z" fill="#F4D178"/>
<path d="M34.7427 26.5184C34.958 26.4834 35.1041 26.2804 35.069 26.0651C35.034 25.8498 34.831 25.7037 34.6157 25.7387C34.4004 25.7738 34.2543 25.9768 34.2893 26.1921C34.3244 26.4074 34.5274 26.5535 34.7427 26.5184Z" fill="#F4D178"/>
<path d="M13.5357 27.3322C13.5885 27.3322 13.6312 27.2894 13.6312 27.2366C13.6312 27.1839 13.5885 27.1411 13.5357 27.1411C13.483 27.1411 13.4402 27.1839 13.4402 27.2366C13.4402 27.2894 13.483 27.3322 13.5357 27.3322Z" fill="#F4D178"/>
<path d="M14.6484 27.4281C14.7541 27.4281 14.8397 27.3425 14.8397 27.2368C14.8397 27.131 14.7541 27.0454 14.6484 27.0454C14.5426 27.0454 14.457 27.131 14.457 27.2368C14.457 27.3425 14.5426 27.4281 14.6484 27.4281Z" fill="#F4D178"/>
<path d="M15.7612 27.5147C15.9146 27.5147 16.0391 27.3902 16.0391 27.2368C16.0391 27.0834 15.9146 26.959 15.7612 26.959C15.6079 26.959 15.4834 27.0831 15.4834 27.2368C15.4834 27.3905 15.6079 27.5147 15.7612 27.5147Z" fill="#F4D178"/>
<path d="M16.8737 27.5883C17.068 27.5883 17.2255 27.4308 17.2255 27.2365C17.2255 27.0422 17.068 26.8848 16.8737 26.8848C16.6794 26.8848 16.522 27.0422 16.522 27.2365C16.522 27.4308 16.6794 27.5883 16.8737 27.5883Z" fill="#F4D178"/>
<path d="M17.9864 27.6564C18.2181 27.6564 18.4059 27.4686 18.4059 27.2369C18.4059 27.0052 18.2181 26.8174 17.9864 26.8174C17.7547 26.8174 17.5669 27.0052 17.5669 27.2369C17.5669 27.4686 17.7547 27.6564 17.9864 27.6564Z" fill="#F4D178"/>
<path d="M19.0994 27.7121C19.3617 27.7121 19.5744 27.4994 19.5744 27.2368C19.5744 26.9741 19.3617 26.7617 19.0994 26.7617C18.837 26.7617 18.624 26.9744 18.624 27.2368C18.624 27.4991 18.837 27.7121 19.0994 27.7121Z" fill="#F4D178"/>
<path d="M20.2119 27.7583C20.5 27.7583 20.7334 27.5249 20.7334 27.2368C20.7334 26.9488 20.5 26.7153 20.2119 26.7153C19.9239 26.7153 19.6904 26.9488 19.6904 27.2368C19.6904 27.5249 19.9239 27.7583 20.2119 27.7583Z" fill="#F4D178"/>
<path d="M21.3249 27.7983C21.6352 27.7983 21.8864 27.5468 21.8864 27.2368C21.8864 26.9265 21.6349 26.6753 21.3249 26.6753C21.0147 26.6753 20.7634 26.9268 20.7634 27.2368C20.7634 27.5471 21.0147 27.7983 21.3249 27.7983Z" fill="#F4D178"/>
<path d="M22.4377 27.8265C22.7631 27.8265 23.0269 27.5627 23.0269 27.2372C23.0269 26.9118 22.7631 26.6479 22.4377 26.6479C22.1122 26.6479 21.8484 26.9118 21.8484 27.2372C21.8484 27.5627 22.1122 27.8265 22.4377 27.8265Z" fill="#F4D178"/>
<path d="M23.5506 27.8477C23.888 27.8477 24.1615 27.5743 24.1615 27.2369C24.1615 26.8994 23.888 26.626 23.5506 26.626C23.2131 26.626 22.9397 26.8994 22.9397 27.2369C22.9394 27.5743 23.2131 27.8477 23.5506 27.8477Z" fill="#F4D178"/>
<path d="M24.6629 27.8601C25.0071 27.8601 25.2861 27.5811 25.2861 27.2369C25.2861 26.8928 25.0071 26.6138 24.6629 26.6138C24.3188 26.6138 24.0398 26.8928 24.0398 27.2369C24.0398 27.5811 24.3188 27.8601 24.6629 27.8601Z" fill="#F4D178"/>
<path d="M25.7758 27.8666C26.1235 27.8666 26.4054 27.5847 26.4054 27.237C26.4054 26.8893 26.1235 26.6074 25.7758 26.6074C25.4281 26.6074 25.1462 26.8893 25.1462 27.237C25.1462 27.5847 25.4281 27.8666 25.7758 27.8666Z" fill="#F4D178"/>
<path d="M26.8886 27.8636C27.2345 27.8636 27.5149 27.5831 27.5149 27.2372C27.5149 26.8913 27.2345 26.6108 26.8886 26.6108C26.5427 26.6108 26.2622 26.8913 26.2622 27.2372C26.2622 27.5831 26.5427 27.8636 26.8886 27.8636Z" fill="#F4D178"/>
<path d="M28.0013 27.8512C28.3405 27.8512 28.6154 27.5763 28.6154 27.2371C28.6154 26.898 28.3405 26.623 28.0013 26.623C27.6621 26.623 27.3872 26.898 27.3872 27.2371C27.3872 27.5763 27.6621 27.8512 28.0013 27.8512Z" fill="#F4D178"/>
<path d="M29.1142 27.8327C29.4432 27.8327 29.7096 27.566 29.7096 27.237C29.7096 26.908 29.4429 26.6416 29.1142 26.6416C28.7852 26.6416 28.5188 26.9083 28.5188 27.237C28.5188 27.5657 28.7852 27.8327 29.1142 27.8327Z" fill="#F4D178"/>
<path d="M30.2268 27.8042C30.5403 27.8042 30.7945 27.5501 30.7945 27.2366C30.7945 26.9231 30.5403 26.6689 30.2268 26.6689C29.9133 26.6689 29.6592 26.9231 29.6592 27.2366C29.6592 27.5501 29.9133 27.8042 30.2268 27.8042Z" fill="#F4D178"/>
<path d="M31.3397 27.7677C31.6327 27.7677 31.8705 27.5302 31.8705 27.2369C31.8705 26.9439 31.633 26.7061 31.3397 26.7061C31.0464 26.7061 30.8088 26.9436 30.8088 27.2369C30.8088 27.5299 31.0464 27.7677 31.3397 27.7677Z" fill="#F4D178"/>
<path d="M32.4522 27.7212C32.7197 27.7212 32.9365 27.5043 32.9365 27.2368C32.9365 26.9693 32.7197 26.7524 32.4522 26.7524C32.1846 26.7524 31.9678 26.9693 31.9678 27.2368C31.9678 27.5043 32.1846 27.7212 32.4522 27.7212Z" fill="#F4D178"/>
<path d="M33.5651 27.6659C33.802 27.6659 33.994 27.4738 33.994 27.237C33.994 27.0001 33.802 26.8081 33.5651 26.8081C33.3282 26.8081 33.1362 27.0001 33.1362 27.237C33.1362 27.4738 33.3282 27.6659 33.5651 27.6659Z" fill="#F4D178"/>
<path d="M34.6777 27.6006C34.8788 27.6006 35.0417 27.4376 35.0417 27.2366C35.0417 27.0355 34.8788 26.8726 34.6777 26.8726C34.4767 26.8726 34.3137 27.0355 34.3137 27.2366C34.3137 27.4376 34.4767 27.6006 34.6777 27.6006Z" fill="#F4D178"/>
<path d="M13.5355 28.4025C13.5644 28.4025 13.5881 28.3792 13.5881 28.35C13.5881 28.321 13.5647 28.2974 13.5355 28.2974C13.5066 28.2974 13.4829 28.3207 13.4829 28.35C13.4829 28.3789 13.5066 28.4025 13.5355 28.4025Z" fill="#F4D178"/>
<path d="M14.6484 28.5009C14.7319 28.5009 14.7997 28.4331 14.7997 28.3496C14.7997 28.266 14.7319 28.1982 14.6484 28.1982C14.5648 28.1982 14.4973 28.266 14.4973 28.3496C14.497 28.4334 14.5648 28.5009 14.6484 28.5009Z" fill="#F4D178"/>
<path d="M15.7612 28.5873C15.8924 28.5873 15.9987 28.481 15.9987 28.3498C15.9987 28.2186 15.8924 28.1123 15.7612 28.1123C15.63 28.1123 15.5237 28.2186 15.5237 28.3498C15.5234 28.481 15.6297 28.5873 15.7612 28.5873Z" fill="#F4D178"/>
<path d="M16.8737 28.661C17.0458 28.661 17.1855 28.5214 17.1855 28.3493C17.1855 28.1772 17.0458 28.0376 16.8737 28.0376C16.7017 28.0376 16.562 28.1772 16.562 28.3493C16.5623 28.5214 16.7017 28.661 16.8737 28.661Z" fill="#F4D178"/>
<path d="M17.9864 28.7292C18.196 28.7292 18.3659 28.5593 18.3659 28.3497C18.3659 28.1401 18.196 27.9702 17.9864 27.9702C17.7768 27.9702 17.6069 28.1401 17.6069 28.3497C17.6069 28.5593 17.7768 28.7292 17.9864 28.7292Z" fill="#F4D178"/>
<path d="M19.0993 28.7846C19.3395 28.7846 19.5343 28.5897 19.5343 28.3496C19.5343 28.1094 19.3395 27.9146 19.0993 27.9146C18.8589 27.9146 18.6643 28.1094 18.6643 28.3496C18.6643 28.5897 18.8592 28.7846 19.0993 28.7846Z" fill="#F4D178"/>
<path d="M20.2119 28.834C20.4794 28.834 20.6963 28.6171 20.6963 28.3496C20.6963 28.0821 20.4794 27.8652 20.2119 27.8652C19.9444 27.8652 19.7275 28.0821 19.7275 28.3496C19.7275 28.6171 19.9444 28.834 20.2119 28.834Z" fill="#F4D178"/>
<path d="M21.3249 28.874C21.6146 28.874 21.8494 28.6392 21.8494 28.3496C21.8494 28.06 21.6146 27.8252 21.3249 27.8252C21.0353 27.8252 20.8005 28.06 20.8005 28.3496C20.8005 28.6392 21.0353 28.874 21.3249 28.874Z" fill="#F4D178"/>
<path d="M22.4377 28.9018C22.7427 28.9018 22.9901 28.6546 22.9901 28.3493C22.9901 28.0443 22.743 27.7969 22.4377 27.7969C22.1327 27.7969 21.8855 28.044 21.8855 28.3493C21.8852 28.6546 22.1327 28.9018 22.4377 28.9018Z" fill="#F4D178"/>
<path d="M23.5503 28.9234C23.8672 28.9234 24.1241 28.6665 24.1241 28.3497C24.1241 28.0328 23.8672 27.7759 23.5503 27.7759C23.2334 27.7759 22.9766 28.0328 22.9766 28.3497C22.9766 28.6665 23.2334 28.9234 23.5503 28.9234Z" fill="#F4D178"/>
<path d="M24.663 28.9393C24.9884 28.9393 25.2523 28.6754 25.2523 28.35C25.2523 28.0246 24.9884 27.7607 24.663 27.7607C24.3376 27.7607 24.0737 28.0246 24.0737 28.35C24.0737 28.6754 24.3376 28.9393 24.663 28.9393Z" fill="#F4D178"/>
<path d="M25.7758 28.9423C26.103 28.9423 26.3683 28.677 26.3683 28.3498C26.3683 28.0226 26.103 27.7573 25.7758 27.7573C25.4486 27.7573 25.1833 28.0226 25.1833 28.3498C25.1833 28.677 25.4486 28.9423 25.7758 28.9423Z" fill="#F4D178"/>
<path d="M26.8886 28.9393C27.214 28.9393 27.4778 28.6754 27.4778 28.35C27.4778 28.0246 27.214 27.7607 26.8886 27.7607C26.5631 27.7607 26.2993 28.0246 26.2993 28.35C26.2993 28.6754 26.5631 28.9393 26.8886 28.9393Z" fill="#F4D178"/>
<path d="M28.0013 28.9264C28.32 28.9264 28.5783 28.6682 28.5783 28.3495C28.5783 28.0307 28.32 27.7725 28.0013 27.7725C27.6826 27.7725 27.4243 28.0307 27.4243 28.3495C27.4243 28.6682 27.6826 28.9264 28.0013 28.9264Z" fill="#F4D178"/>
<path d="M29.114 28.9082C29.4225 28.9082 29.6726 28.6581 29.6726 28.3496C29.6726 28.0411 29.4225 27.791 29.114 27.791C28.8055 27.791 28.5554 28.0411 28.5554 28.3496C28.5554 28.6581 28.8055 28.9082 29.114 28.9082Z" fill="#F4D178"/>
<path d="M30.2269 28.8805C30.5199 28.8805 30.7577 28.643 30.7577 28.3497C30.7577 28.0567 30.5202 27.8188 30.2269 27.8188C29.9336 27.8188 29.696 28.0564 29.696 28.3497C29.696 28.6427 29.9336 28.8805 30.2269 28.8805Z" fill="#F4D178"/>
<path d="M31.3397 28.8429C31.6123 28.8429 31.8334 28.6218 31.8334 28.3492C31.8334 28.0766 31.6123 27.8555 31.3397 27.8555C31.0671 27.8555 30.8459 28.0766 30.8459 28.3492C30.8459 28.6218 31.0668 28.8429 31.3397 28.8429Z" fill="#F4D178"/>
<path d="M32.4522 28.7969C32.6994 28.7969 32.8995 28.5965 32.8995 28.3496C32.8995 28.1025 32.6991 27.9023 32.4522 27.9023C32.2051 27.9023 32.0046 28.1028 32.0046 28.3496C32.0049 28.5968 32.2053 28.7969 32.4522 28.7969Z" fill="#F4D178"/>
<path d="M33.5651 28.7416C33.7816 28.7416 33.9569 28.5663 33.9569 28.3498C33.9569 28.1333 33.7816 27.958 33.5651 27.958C33.3486 27.958 33.1733 28.1336 33.1733 28.3498C33.1733 28.5663 33.3486 28.7416 33.5651 28.7416Z" fill="#F4D178"/>
<path d="M34.6777 28.6769C34.8583 28.6769 35.005 28.5305 35.005 28.3497C35.005 28.1691 34.8586 28.0225 34.6777 28.0225C34.4972 28.0225 34.3508 28.1688 34.3508 28.3497C34.3508 28.5302 34.4972 28.6769 34.6777 28.6769Z" fill="#F4D178"/>
<path d="M35.7906 28.6027C35.9302 28.6027 36.0436 28.4893 36.0436 28.3497C36.0436 28.21 35.9302 28.0967 35.7906 28.0967C35.651 28.0967 35.5376 28.21 35.5376 28.3497C35.5376 28.4893 35.651 28.6027 35.7906 28.6027Z" fill="#F4D178"/>
<path d="M13.5359 29.466C13.5377 29.466 13.5393 29.4644 13.5393 29.4626C13.5393 29.4607 13.5377 29.4595 13.5359 29.4595C13.534 29.4595 13.5325 29.461 13.5325 29.4626C13.5325 29.4647 13.534 29.466 13.5359 29.466Z" fill="#F4D178"/>
<path d="M14.6483 29.564C14.7047 29.564 14.7503 29.5184 14.7503 29.462C14.7503 29.4059 14.7047 29.3604 14.6483 29.3604C14.5923 29.3604 14.5464 29.4059 14.5464 29.462C14.5464 29.5184 14.592 29.564 14.6483 29.564Z" fill="#F4D178"/>
<path d="M15.7611 29.6502C15.8652 29.6502 15.9493 29.5661 15.9493 29.4621C15.9493 29.3581 15.8649 29.2739 15.7611 29.2739C15.6574 29.2739 15.573 29.3581 15.573 29.4621C15.5727 29.5661 15.6571 29.6502 15.7611 29.6502Z" fill="#F4D178"/>
<path d="M16.8737 29.7278C17.0203 29.7278 17.1389 29.6089 17.1389 29.4625C17.1389 29.3159 17.02 29.1973 16.8737 29.1973C16.727 29.1973 16.6084 29.3162 16.6084 29.4625C16.6084 29.6089 16.7273 29.7278 16.8737 29.7278Z" fill="#F4D178"/>
<path d="M17.9864 29.7926C18.1687 29.7926 18.3165 29.6448 18.3165 29.4625C18.3165 29.2801 18.1687 29.1323 17.9864 29.1323C17.804 29.1323 17.6562 29.2801 17.6562 29.4625C17.6562 29.6448 17.804 29.7926 17.9864 29.7926Z" fill="#F4D178"/>
<path d="M19.0993 29.8509C19.3141 29.8509 19.4882 29.6768 19.4882 29.4621C19.4882 29.2473 19.3141 29.0732 19.0993 29.0732C18.8846 29.0732 18.7104 29.2473 18.7104 29.4621C18.7104 29.6768 18.8846 29.8509 19.0993 29.8509Z" fill="#F4D178"/>
<path d="M20.2121 29.9004C20.454 29.9004 20.6504 29.704 20.6504 29.4621C20.6504 29.2202 20.454 29.0239 20.2121 29.0239C19.9702 29.0239 19.7739 29.22 19.7739 29.4621C19.7739 29.704 19.9702 29.9004 20.2121 29.9004Z" fill="#F4D178"/>
<path d="M21.3249 29.9404C21.5891 29.9404 21.8032 29.7263 21.8032 29.4621C21.8032 29.198 21.5891 28.9839 21.3249 28.9839C21.0608 28.9839 20.8467 29.198 20.8467 29.4621C20.8467 29.7263 21.0608 29.9404 21.3249 29.9404Z" fill="#F4D178"/>
<path d="M22.4377 29.9716C22.7189 29.9716 22.9469 29.7436 22.9469 29.4623C22.9469 29.1811 22.7189 28.9531 22.4377 28.9531C22.1565 28.9531 21.9285 29.1811 21.9285 29.4623C21.9285 29.7436 22.1565 29.9716 22.4377 29.9716Z" fill="#F4D178"/>
<path d="M23.5504 29.9928C23.8434 29.9928 24.0812 29.7553 24.0812 29.462C24.0812 29.169 23.8437 28.9312 23.5504 28.9312C23.2573 28.9312 23.0195 29.1687 23.0195 29.462C23.0195 29.755 23.2571 29.9928 23.5504 29.9928Z" fill="#F4D178"/>
<path d="M24.663 30.0056C24.963 30.0056 25.2061 29.7626 25.2061 29.4625C25.2061 29.1625 24.963 28.9194 24.663 28.9194C24.3629 28.9194 24.1199 29.1625 24.1199 29.4625C24.1202 29.7623 24.3632 30.0056 24.663 30.0056Z" fill="#F4D178"/>
<path d="M25.7758 30.0121C26.0791 30.0121 26.325 29.7662 26.325 29.4628C26.325 29.1595 26.0791 28.9136 25.7758 28.9136C25.4725 28.9136 25.2266 29.1595 25.2266 29.4628C25.2266 29.7662 25.4725 30.0121 25.7758 30.0121Z" fill="#F4D178"/>
<path d="M26.8886 30.0056C27.1886 30.0056 27.4317 29.7626 27.4317 29.4625C27.4317 29.1625 27.1886 28.9194 26.8886 28.9194C26.5885 28.9194 26.3455 29.1625 26.3455 29.4625C26.3455 29.7623 26.5885 30.0056 26.8886 30.0056Z" fill="#F4D178"/>
<path d="M28.0013 29.9957C28.2961 29.9957 28.535 29.7568 28.535 29.462C28.535 29.1672 28.2961 28.9282 28.0013 28.9282C27.7065 28.9282 27.4675 29.1672 27.4675 29.462C27.4675 29.7568 27.7065 29.9957 28.0013 29.9957Z" fill="#F4D178"/>
<path d="M29.1142 29.9745C29.397 29.9745 29.6263 29.7451 29.6263 29.4623C29.6263 29.1795 29.397 28.9502 29.1142 28.9502C28.8314 28.9502 28.6021 29.1795 28.6021 29.4623C28.6021 29.7451 28.8314 29.9745 29.1142 29.9745Z" fill="#F4D178"/>
<path d="M30.2268 29.9468C30.4943 29.9468 30.7112 29.7299 30.7112 29.4624C30.7112 29.1949 30.4943 28.978 30.2268 28.978C29.9593 28.978 29.7424 29.1949 29.7424 29.4624C29.7424 29.7299 29.9593 29.9468 30.2268 29.9468Z" fill="#F4D178"/>
<path d="M31.3396 29.9063C31.585 29.9063 31.784 29.7073 31.784 29.4619C31.784 29.2165 31.585 29.0176 31.3396 29.0176C31.0942 29.0176 30.8953 29.2165 30.8953 29.4619C30.8953 29.7073 31.0942 29.9063 31.3396 29.9063Z" fill="#F4D178"/>
<path d="M34.6777 29.7399C34.8311 29.7399 34.9556 29.6155 34.9556 29.4621C34.9556 29.3087 34.8311 29.1846 34.6777 29.1846C34.5244 29.1846 34.3999 29.3087 34.3999 29.4621C34.4002 29.6158 34.5244 29.7399 34.6777 29.7399Z" fill="#F4D178"/>
<path d="M35.7905 29.666C35.903 29.666 35.9942 29.5749 35.9942 29.4624C35.9942 29.3499 35.903 29.2588 35.7905 29.2588C35.6781 29.2588 35.5869 29.3499 35.5869 29.4624C35.5869 29.5749 35.6781 29.666 35.7905 29.666Z" fill="#F4D178"/>
<path d="M17.9863 30.8495C18.138 30.8495 18.2609 30.7266 18.2609 30.5749C18.2609 30.4232 18.138 30.3003 17.9863 30.3003C17.8346 30.3003 17.7117 30.4232 17.7117 30.5749C17.7117 30.7266 17.8346 30.8495 17.9863 30.8495Z" fill="#F4D178"/>
<path d="M19.0992 30.9054C19.2815 30.9054 19.4293 30.7575 19.4293 30.5752C19.4293 30.3929 19.2815 30.2451 19.0992 30.2451C18.9169 30.2451 18.769 30.3929 18.769 30.5752C18.769 30.7575 18.9169 30.9054 19.0992 30.9054Z" fill="#F4D178"/>
<path d="M20.212 30.9548C20.4215 30.9548 20.5915 30.7848 20.5915 30.5753C20.5915 30.3655 20.4215 30.1958 20.212 30.1958C20.0026 30.1958 19.8325 30.3658 19.8325 30.5753C19.8325 30.7848 20.0026 30.9548 20.212 30.9548Z" fill="#F4D178"/>
<path d="M21.3248 30.9948C21.5565 30.9948 21.7443 30.807 21.7443 30.5753C21.7443 30.3436 21.5565 30.1558 21.3248 30.1558C21.0931 30.1558 20.9053 30.3436 20.9053 30.5753C20.9053 30.807 21.0931 30.9948 21.3248 30.9948Z" fill="#F4D178"/>
<path d="M22.4376 31.0255C22.6865 31.0255 22.8881 30.8239 22.8881 30.575C22.8881 30.3261 22.6865 30.1245 22.4376 30.1245C22.1886 30.1245 21.9871 30.3261 21.9871 30.575C21.9871 30.8236 22.1886 31.0255 22.4376 31.0255Z" fill="#F4D178"/>
<path d="M23.5505 31.0503C23.813 31.0503 24.0258 30.8375 24.0258 30.5749C24.0258 30.3124 23.813 30.0996 23.5505 30.0996C23.288 30.0996 23.0752 30.3124 23.0752 30.5749C23.0752 30.8375 23.288 31.0503 23.5505 31.0503Z" fill="#F4D178"/>
<path d="M24.6629 31.0631C24.9322 31.0631 25.1505 30.8448 25.1505 30.5755C25.1505 30.3061 24.9322 30.0879 24.6629 30.0879C24.3935 30.0879 24.1753 30.3061 24.1753 30.5755C24.1756 30.8446 24.3938 31.0631 24.6629 31.0631Z" fill="#F4D178"/>
<path d="M25.7757 31.0695C26.0484 31.0695 26.2694 30.8484 26.2694 30.5758C26.2694 30.3031 26.0484 30.082 25.7757 30.082C25.503 30.082 25.282 30.3031 25.282 30.5758C25.282 30.8484 25.503 31.0695 25.7757 31.0695Z" fill="#F4D178"/>
<path d="M26.8885 31.0655C27.1593 31.0655 27.379 30.8458 27.379 30.575C27.379 30.3039 27.1593 30.0845 26.8885 30.0845C26.6176 30.0845 26.3979 30.3042 26.3979 30.575C26.3979 30.8458 26.6176 31.0655 26.8885 31.0655Z" fill="#F4D178"/>
<path d="M28.0012 31.0532C28.2653 31.0532 28.4794 30.8391 28.4794 30.5749C28.4794 30.3108 28.2653 30.0967 28.0012 30.0967C27.7371 30.0967 27.5229 30.3108 27.5229 30.5749C27.5229 30.8391 27.7371 31.0532 28.0012 31.0532Z" fill="#F4D178"/>
<path d="M29.1141 31.0319C29.3662 31.0319 29.5707 30.8274 29.5707 30.5753C29.5707 30.3232 29.3662 30.1187 29.1141 30.1187C28.862 30.1187 28.6575 30.3232 28.6575 30.5753C28.6575 30.8274 28.8617 31.0319 29.1141 31.0319Z" fill="#F4D178"/>
<path d="M30.227 31.0042C30.4638 31.0042 30.6558 30.8122 30.6558 30.5754C30.6558 30.3385 30.4638 30.1465 30.227 30.1465C29.9901 30.1465 29.7981 30.3385 29.7981 30.5754C29.7981 30.8122 29.9901 31.0042 30.227 31.0042Z" fill="#F4D178"/>
<path d="M17.9864 31.8946C18.1006 31.8946 18.1932 31.802 18.1932 31.6878C18.1932 31.5736 18.1006 31.481 17.9864 31.481C17.8721 31.481 17.7795 31.5736 17.7795 31.6878C17.7798 31.802 17.8721 31.8946 17.9864 31.8946Z" fill="#F4D178"/>
<path d="M19.0993 31.9534C19.2459 31.9534 19.3645 31.8345 19.3645 31.6881C19.3645 31.5415 19.2456 31.4229 19.0993 31.4229C18.9526 31.4229 18.834 31.5418 18.834 31.6881C18.834 31.8345 18.9526 31.9534 19.0993 31.9534Z" fill="#F4D178"/>
<path d="M21.3249 32.0434C21.521 32.0434 21.6799 31.8845 21.6799 31.6885C21.6799 31.4924 21.521 31.3335 21.3249 31.3335C21.1289 31.3335 20.97 31.4924 20.97 31.6885C20.97 31.8845 21.1289 32.0434 21.3249 32.0434Z" fill="#F4D178"/>
<path d="M22.4376 32.0735C22.6506 32.0735 22.8233 31.9009 22.8233 31.6879C22.8233 31.4749 22.6506 31.3022 22.4376 31.3022C22.2247 31.3022 22.052 31.4749 22.052 31.6879C22.0517 31.9009 22.2247 32.0735 22.4376 32.0735Z" fill="#F4D178"/>
<path d="M23.5504 32.0978C23.7771 32.0978 23.9608 31.914 23.9608 31.6873C23.9608 31.4606 23.7771 31.2769 23.5504 31.2769C23.3237 31.2769 23.1399 31.4606 23.1399 31.6873C23.1399 31.914 23.3237 32.0978 23.5504 32.0978Z" fill="#F4D178"/>
<path d="M24.663 32.1106C24.8964 32.1106 25.0857 31.9213 25.0857 31.6879C25.0857 31.4544 24.8964 31.2651 24.663 31.2651C24.4295 31.2651 24.2402 31.4544 24.2402 31.6879C24.2402 31.9213 24.4295 32.1106 24.663 32.1106Z" fill="#F4D178"/>
<path d="M25.7758 32.117C26.0127 32.117 26.2047 31.925 26.2047 31.6882C26.2047 31.4513 26.0127 31.2593 25.7758 31.2593C25.5389 31.2593 25.3469 31.4513 25.3469 31.6882C25.3469 31.925 25.5389 32.117 25.7758 32.117Z" fill="#F4D178"/>
<path d="M28.0013 32.1012C28.2297 32.1012 28.4147 31.916 28.4147 31.6878C28.4147 31.4593 28.2294 31.2744 28.0013 31.2744C27.7728 31.2744 27.5879 31.4596 27.5879 31.6878C27.5879 31.916 27.7728 32.1012 28.0013 32.1012Z" fill="#F4D178"/>
<path d="M29.1142 32.0799C29.3307 32.0799 29.506 31.9043 29.506 31.6882C29.506 31.472 29.3307 31.2964 29.1142 31.2964C28.8977 31.2964 28.7224 31.472 28.7224 31.6882C28.7224 31.9043 28.8977 32.0799 29.1142 32.0799Z" fill="#F4D178"/>
<path d="M30.2268 32.0489C30.4261 32.0489 30.5879 31.8873 30.5879 31.6878C30.5879 31.4885 30.4264 31.3267 30.2268 31.3267C30.0273 31.3267 29.8657 31.4882 29.8657 31.6878C29.8657 31.8873 30.0273 32.0489 30.2268 32.0489Z" fill="#F4D178"/>
<path d="M22.4377 33.1122C22.6098 33.1122 22.7494 32.9726 22.7494 32.8005C22.7494 32.6284 22.6098 32.4888 22.4377 32.4888C22.2656 32.4888 22.126 32.6284 22.126 32.8005C22.126 32.9726 22.2656 33.1122 22.4377 33.1122Z" fill="#F4D178"/>
<path d="M23.5504 33.1374C23.7362 33.1374 23.8866 32.9869 23.8866 32.8011C23.8866 32.6153 23.7362 32.4648 23.5504 32.4648C23.3646 32.4648 23.2141 32.6153 23.2141 32.8011C23.2138 32.9866 23.3646 33.1374 23.5504 33.1374Z" fill="#F4D178"/>
<path d="M24.663 33.1493C24.8557 33.1493 25.0119 32.9931 25.0119 32.8005C25.0119 32.6078 24.8557 32.4517 24.663 32.4517C24.4704 32.4517 24.3142 32.6078 24.3142 32.8005C24.3142 32.9931 24.4704 33.1493 24.663 33.1493Z" fill="#F4D178"/>
<path d="M29.1142 33.1181C29.2898 33.1181 29.4321 32.9759 29.4321 32.8003C29.4321 32.6247 29.2898 32.4824 29.1142 32.4824C28.9387 32.4824 28.7964 32.6247 28.7964 32.8003C28.7964 32.9759 28.9387 33.1181 29.1142 33.1181Z" fill="#F4D178"/>
<path d="M30.2268 33.0879C30.3855 33.0879 30.5137 32.9594 30.5137 32.801C30.5137 32.6424 30.3852 32.5142 30.2268 32.5142C30.0685 32.5142 29.9399 32.6427 29.9399 32.801C29.9396 32.9594 30.0682 33.0879 30.2268 33.0879Z" fill="#F4D178"/>
<path d="M23.5504 34.1634C23.6883 34.1634 23.8002 34.0515 23.8002 33.9134C23.8002 33.7755 23.6883 33.6636 23.5504 33.6636C23.4122 33.6636 23.3003 33.7755 23.3003 33.9134C23.3003 34.0515 23.4122 34.1634 23.5504 34.1634Z" fill="#F4D178"/>
<path d="M30.2268 34.1167C30.3393 34.1167 30.4304 34.0256 30.4304 33.9131C30.4304 33.8006 30.3393 33.7095 30.2268 33.7095C30.1143 33.7095 30.0232 33.8006 30.0232 33.9131C30.0232 34.0256 30.1143 34.1167 30.2268 34.1167Z" fill="#F4D178"/>
<path d="M31.3396 34.0772C31.4299 34.0772 31.5032 34.0039 31.5032 33.9136C31.5032 33.8233 31.4299 33.75 31.3396 33.75C31.2494 33.75 31.176 33.8233 31.176 33.9136C31.176 34.0039 31.2491 34.0772 31.3396 34.0772Z" fill="#F4D178"/>
</g>
<path d="M14.9199 42.5737C14.5661 36.4818 16.3327 28.6548 19.648 23.7479L17.2749 22.8042L17.8951 21.8407C19.2904 19.6736 20.9197 17.6873 22.7483 15.9224L21.3448 14.885L22.1876 14.1116C25.2137 11.3351 28.6543 9.17316 32.4152 7.68554L33.1283 7.40332L37.7738 14.4602L36.2397 14.6276C34.2578 14.8441 32.2898 15.3112 30.3719 16.02L32.9706 18.3212L31.5063 18.8728C29.7046 19.5512 27.9716 20.4632 26.3391 21.5909C26.5442 21.7247 26.7492 21.858 26.9549 21.9906L28.1472 22.759L26.9777 23.5612C21.4692 27.341 17.8282 31.5296 14.9199 42.5737Z" fill="#820B0B"/>
<path d="M28.6053 15.7147C31.0953 14.6279 33.6434 13.9615 36.1375 13.6892C35.0124 11.9802 33.8874 10.2711 32.7623 8.56201C29.1595 9.98711 25.7846 12.0909 22.8255 14.8061C23.2912 15.1503 23.7568 15.4941 24.2228 15.8377C22.1442 17.7057 20.2727 19.8898 18.6883 22.3508C19.4947 22.6716 20.3013 22.9921 21.1082 23.312C17.7181 27.9321 15.4081 33.8793 15.0938 40.651C16.7485 32.472 21.2674 26.3349 26.4443 22.7829C25.8556 22.4037 25.2699 22.0193 24.6873 21.6295C26.7505 20.0385 28.9495 18.827 31.1742 17.9894C30.3176 17.2312 29.4616 16.4731 28.6053 15.7147Z" fill="#F7CF28"/>
<path d="M15.0935 40.6515C15.0935 40.6515 16.5253 28.0053 22.3189 23.2365L19.9376 21.9266C19.9376 21.9266 20.9856 19.6209 25.1779 15.7429L24.1709 14.4852C24.1709 14.4852 28.3763 10.616 33.2488 9.30164L32.7621 8.5625C32.7621 8.5625 27.5995 10.2543 22.8252 14.8066L24.2226 15.8382C24.2226 15.8382 20.7927 18.8458 18.6881 22.3513L21.0379 23.4463C21.0379 23.4463 15.8435 28.3851 15.0935 40.6515Z" fill="#F48B00"/>
<path d="M15.0935 40.6514C15.0935 40.6514 16.2694 29.7344 24.8635 22.8698L23.3505 21.7038C23.3505 21.7038 26.6977 18.7823 29.58 17.6295L27.2022 15.4942C27.2022 15.4942 29.2928 13.6125 35.2532 12.3457L36.1379 13.6896C36.1379 13.6896 31.8988 14.2166 28.6057 15.7151L31.1742 17.9897C31.1742 17.9897 27.8113 19.2276 24.6874 21.6299L26.4444 22.7833C26.4444 22.7833 17.3696 28.791 15.0935 40.6514Z" fill="#FFE888"/>
</svg>
