<svg width="50" height="51" viewBox="0 0 50 51" fill="none" xmlns="http://www.w3.org/2000/svg">
<path d="M40.789 11.9416C40.7682 11.9599 40.7627 11.9805 40.7543 11.9873C40.7511 11.9921 40.7107 12.0038 40.6897 12.012L40.5365 12.0657L40.2314 12.1777L39.6244 12.4102C39.2202 12.5651 38.8199 12.7312 38.4214 12.8998C38.0243 13.0727 37.6261 13.2415 37.2349 13.4269C36.8419 13.6077 36.4482 13.7861 36.0597 13.9761C34.4997 14.7222 32.9783 15.5436 31.4905 16.4176C31.1156 16.6308 30.752 16.8636 30.3825 17.0856C30.0135 17.3085 29.6455 17.5332 29.2871 17.7733L28.2009 18.4745L27.1363 19.2077C26.4208 19.6877 25.7401 20.2165 25.0414 20.7194C24.3496 21.2321 23.6847 21.7799 23.0051 22.3079L23.2063 21.8321C23.215 21.9614 23.209 22.0131 23.2055 22.0937C23.1999 22.1667 23.1919 22.2358 23.1831 22.3054C23.1627 22.4412 23.1357 22.5725 23.1027 22.6995C23.0363 22.9538 22.947 23.1942 22.8455 23.4249C22.6419 23.8867 22.3882 24.3111 22.1042 24.7045C21.5402 25.4969 20.8774 26.1886 20.1625 26.8041C18.7361 28.0231 17.203 29.0582 15.6388 30.0318C14.8542 30.5151 14.0623 30.9833 13.2561 31.4277C12.8561 31.6488 12.4422 31.8716 12.0407 32.0767C11.6576 32.2808 11.2801 32.5131 10.9217 32.7629C10.5645 33.0151 10.224 33.2886 9.92361 33.5924C9.61868 33.892 9.3593 34.2266 9.17689 34.5858C9.0043 34.9469 8.92156 35.3342 8.9927 35.7136C9.04945 36.0952 9.26586 36.4577 9.53757 36.7778C9.81191 37.1002 10.1421 37.3644 10.5198 37.5091C10.897 37.6545 11.3203 37.6572 11.7321 37.5613C12.5636 37.3529 13.3117 36.8065 13.9829 36.2169C14.6606 35.621 15.2645 34.9414 15.881 34.2658C16.1853 33.9226 16.515 33.592 16.834 33.2711L17.801 32.2984C19.095 31.0047 20.4067 29.7141 21.8912 28.5979C22.6427 28.0367 23.4736 27.5654 24.3661 27.2299C25.2633 26.9027 26.2004 26.6736 27.2307 26.7542L26.9007 26.8514C28.1807 25.74 29.4497 24.5883 30.6945 23.4236C31.3177 22.8403 31.9299 22.2456 32.5353 21.6447C33.1478 21.0502 33.741 20.4373 34.3352 19.8248C35.5123 18.5898 36.6577 17.3251 37.7503 16.0138L38.5501 15.0149C38.6825 14.8478 38.821 14.6843 38.9487 14.5136L39.3271 13.9976L39.706 13.4806L39.8946 13.2224L40.0594 12.9758C40.2815 12.6527 40.5446 12.3185 40.789 11.9416ZM40.8701 11.8783C40.6755 12.2385 40.5003 12.6412 40.2831 13.0553L40.1186 13.3613L39.9497 13.6378L39.6112 14.1888L39.2721 14.7406C39.1575 14.9234 39.032 15.0986 38.9123 15.2782C38.6699 15.6351 38.4289 15.9939 38.1746 16.3424C37.1584 17.7381 36.0554 19.0672 34.9125 20.3594C33.7596 21.6425 32.5597 22.8823 31.3181 24.0781C30.6991 24.678 30.0731 25.2706 29.4273 25.8424C28.7858 26.4204 28.1382 26.9833 27.4591 27.5296L27.3093 27.65L27.1288 27.6269C26.7396 27.5771 26.3043 27.6076 25.8808 27.6597C25.4542 27.7152 25.0285 27.8129 24.6121 27.9443C23.7775 28.2069 22.981 28.6023 22.2398 29.0929C20.742 30.0919 19.3584 31.2874 18.0398 32.5428C17.7099 32.857 17.3867 33.179 17.0613 33.4993C16.7341 33.8233 16.4105 34.1324 16.1101 34.4741C15.5042 35.1547 14.8897 35.8408 14.2115 36.4708C13.5321 37.0923 12.7811 37.6869 11.8423 37.9803C11.3746 38.1141 10.8437 38.1399 10.357 37.9775C9.87059 37.817 9.45462 37.5071 9.1227 37.1512C8.79067 36.7959 8.48738 36.3622 8.37626 35.8389C8.30884 35.582 8.30957 35.3105 8.33429 35.0484C8.36449 34.7845 8.44346 34.535 8.53864 34.2964C8.9592 33.3557 9.68491 32.6763 10.4309 32.0957C10.8099 31.8068 11.2017 31.5432 11.6193 31.3078C12.0253 31.0857 12.4094 30.8644 12.8026 30.6327C13.5839 30.1735 14.3584 29.7012 15.1186 29.2098C16.6355 28.2248 18.118 27.1773 19.4471 25.9947C20.0997 25.401 20.7159 24.7707 21.2064 24.0698C21.4563 23.7231 21.6715 23.3574 21.835 22.9826C21.9178 22.7957 21.9844 22.6057 22.0364 22.4188C22.0627 22.325 22.0827 22.2332 22.0982 22.1431L22.1143 22.0145C22.1178 21.9813 22.1183 21.9187 22.1198 21.9338L22.321 21.458C23.0212 20.9312 23.7067 20.3855 24.4184 19.8754C25.1347 19.3715 25.8411 18.8533 26.5838 18.3892C28.0387 17.4146 29.5621 16.5477 31.1001 15.7176C32.6457 14.8991 34.2376 14.1723 35.8508 13.5058C36.2533 13.3372 36.6591 13.1765 37.0701 13.0293C37.4779 12.874 37.8918 12.7354 38.3042 12.5932C38.718 12.4552 39.1325 12.3201 39.5508 12.1965C39.7594 12.1335 39.9689 12.0737 40.1803 12.019L40.4968 11.9365L40.6556 11.8973C40.6865 11.8902 40.698 11.8857 40.7472 11.8762C40.792 11.8684 40.8386 11.8746 40.8701 11.8783Z" fill="#617A84"/>
<path d="M9.1751 36.8281C11.7088 39.83 15.0403 35.1723 16.4282 33.7906C17.8025 32.4225 19.885 30.2796 22.0424 28.768C24.2 27.2567 26.2151 27.0429 27.11 27.1467C27.11 27.1467 36.6523 19.286 40.7597 11.8661C40.7597 11.8661 32.1169 14.18 22.5935 21.8395C22.5935 21.8395 22.7672 23.6845 19.7229 26.3672C16.698 29.0331 11.9124 31.5677 11.9124 31.5677C11.9124 31.5677 6.86891 34.0962 9.1751 36.8281ZM23.4706 24.4535C24.0669 24.5105 24.5042 25.0403 24.4472 25.6366C24.3903 26.2329 23.8605 26.6702 23.2642 26.6132C22.6679 26.5562 22.2306 26.0265 22.2876 25.4302C22.3445 24.8336 22.8742 24.3963 23.4706 24.4535ZM20.2414 27.3214C20.7368 27.3687 21.1 27.8086 21.0524 28.3038C21.0051 28.7992 20.5652 29.1624 20.07 29.1148C19.5746 29.0675 19.2114 28.6276 19.259 28.1324C19.3061 27.6373 19.7461 27.2741 20.2414 27.3214ZM17.3351 29.5186C17.8304 29.5659 18.1936 30.0059 18.1463 30.501C18.099 30.9964 17.6591 31.3596 17.1639 31.3119C16.6685 31.2646 16.3053 30.8247 16.3529 30.3295C16.3997 29.8345 16.8397 29.4713 17.3351 29.5186ZM14.4133 31.9726C14.8226 32.0119 15.1228 32.3752 15.0836 32.7847C15.0444 33.194 14.6808 33.4943 14.2715 33.4551C13.8622 33.4158 13.5619 33.0523 13.6012 32.643C13.6402 32.2338 14.0038 31.9337 14.4133 31.9726ZM11.1212 34.2438C11.7175 34.3008 12.1548 34.8305 12.0978 35.4269C12.0408 36.0232 11.5111 36.4605 10.9147 36.4035C10.3184 36.3465 9.88113 35.8168 9.93811 35.2204C9.99509 34.6241 10.5248 34.1868 11.1212 34.2438Z" fill="#AAB6BC"/>
<mask id="mask0_6_4" style="mask-type:luminance" maskUnits="userSpaceOnUse" x="8" y="11" width="33" height="27">
<path d="M9.1751 36.8281C11.7088 39.83 15.0403 35.1723 16.4282 33.7906C17.8025 32.4225 19.885 30.2796 22.0424 28.768C24.2 27.2567 26.2151 27.0429 27.11 27.1467C27.11 27.1467 36.6523 19.286 40.7597 11.8661C40.7597 11.8661 32.1169 14.18 22.5935 21.8395C22.5935 21.8395 22.7672 23.6845 19.7229 26.3672C16.698 29.0331 11.9124 31.5677 11.9124 31.5677C11.9124 31.5677 6.86891 34.0962 9.1751 36.8281ZM23.4706 24.4535C24.0669 24.5105 24.5042 25.0403 24.4472 25.6366C24.3903 26.2329 23.8605 26.6702 23.2642 26.6132C22.6679 26.5562 22.2306 26.0265 22.2876 25.4302C22.3445 24.8336 22.8742 24.3963 23.4706 24.4535ZM20.2414 27.3214C20.7368 27.3687 21.1 27.8086 21.0524 28.3038C21.0051 28.7992 20.5652 29.1624 20.07 29.1148C19.5746 29.0675 19.2114 28.6276 19.259 28.1324C19.3061 27.6373 19.7461 27.2741 20.2414 27.3214ZM17.3351 29.5186C17.8304 29.5659 18.1936 30.0059 18.1463 30.501C18.099 30.9964 17.6591 31.3596 17.1639 31.3119C16.6685 31.2646 16.3053 30.8247 16.3529 30.3295C16.3997 29.8345 16.8397 29.4713 17.3351 29.5186ZM14.4133 31.9726C14.8226 32.0119 15.1228 32.3752 15.0836 32.7847C15.0444 33.194 14.6808 33.4943 14.2715 33.4551C13.8622 33.4158 13.5619 33.0523 13.6012 32.643C13.6402 32.2338 14.0038 31.9337 14.4133 31.9726ZM11.1212 34.2438C11.7175 34.3008 12.1548 34.8305 12.0978 35.4269C12.0408 36.0232 11.5111 36.4605 10.9147 36.4035C10.3184 36.3465 9.88113 35.8168 9.93811 35.2204C9.99509 34.6241 10.5248 34.1868 11.1212 34.2438Z" fill="white"/>
</mask>
<g mask="url(#mask0_6_4)">
<path d="M26.2611 27.1397C26.2611 27.1397 35.6194 19.8522 40.3953 12.2009C40.3953 12.2009 31.6188 14.9451 22.487 22.5681L22.0515 21.7138C22.0515 21.7138 37.0566 10.9951 41.4673 11.4166C41.4673 11.4166 36.2018 21.2929 26.9842 27.6886L26.2611 27.1397Z" fill="#D7DCDD"/>
</g>
<mask id="mask1_6_4" style="mask-type:luminance" maskUnits="userSpaceOnUse" x="8" y="11" width="33" height="27">
<path d="M9.1751 36.8281C11.7088 39.83 15.0403 35.1723 16.4282 33.7906C17.8025 32.4225 19.885 30.2796 22.0424 28.768C24.2 27.2567 26.2151 27.0429 27.11 27.1467C27.11 27.1467 36.6523 19.286 40.7597 11.8661C40.7597 11.8661 32.1169 14.18 22.5935 21.8395C22.5935 21.8395 22.7672 23.6845 19.7229 26.3672C16.698 29.0331 11.9124 31.5677 11.9124 31.5677C11.9124 31.5677 6.86891 34.0962 9.1751 36.8281ZM23.4706 24.4535C24.0669 24.5105 24.5042 25.0403 24.4472 25.6366C24.3903 26.2329 23.8605 26.6702 23.2642 26.6132C22.6679 26.5562 22.2306 26.0265 22.2876 25.4302C22.3445 24.8336 22.8742 24.3963 23.4706 24.4535ZM20.2414 27.3214C20.7368 27.3687 21.1 27.8086 21.0524 28.3038C21.0051 28.7992 20.5652 29.1624 20.07 29.1148C19.5746 29.0675 19.2114 28.6276 19.259 28.1324C19.3061 27.6373 19.7461 27.2741 20.2414 27.3214ZM17.3351 29.5186C17.8304 29.5659 18.1936 30.0059 18.1463 30.501C18.099 30.9964 17.6591 31.3596 17.1639 31.3119C16.6685 31.2646 16.3053 30.8247 16.3529 30.3295C16.3997 29.8345 16.8397 29.4713 17.3351 29.5186ZM14.4133 31.9726C14.8226 32.0119 15.1228 32.3752 15.0836 32.7847C15.0444 33.194 14.6808 33.4943 14.2715 33.4551C13.8622 33.4158 13.5619 33.0523 13.6012 32.643C13.6402 32.2338 14.0038 31.9337 14.4133 31.9726ZM11.1212 34.2438C11.7175 34.3008 12.1548 34.8305 12.0978 35.4269C12.0408 36.0232 11.5111 36.4605 10.9147 36.4035C10.3184 36.3465 9.88113 35.8168 9.93811 35.2204C9.99509 34.6241 10.5248 34.1868 11.1212 34.2438Z" fill="white"/>
</mask>
<g mask="url(#mask1_6_4)">
<path opacity="0.2" d="M23.3481 28.1171C23.3481 28.1171 15.2788 33.0099 9.87837 32.4936C9.75627 32.482 6.89098 35.4095 9.60257 37.4415C12.3142 39.4736 14.9651 35.4423 14.9651 35.4423C14.9651 35.4423 21.5259 28.6325 23.3481 28.1171Z" fill="white"/>
</g>
<mask id="mask2_6_4" style="mask-type:luminance" maskUnits="userSpaceOnUse" x="8" y="11" width="33" height="27">
<path d="M9.1751 36.8281C11.7088 39.83 15.0403 35.1723 16.4282 33.7906C17.8025 32.4225 19.885 30.2796 22.0424 28.768C24.2 27.2567 26.2151 27.0429 27.11 27.1467C27.11 27.1467 36.6523 19.286 40.7597 11.8661C40.7597 11.8661 32.1169 14.18 22.5935 21.8395C22.5935 21.8395 22.7672 23.6845 19.7229 26.3672C16.698 29.0331 11.9124 31.5677 11.9124 31.5677C11.9124 31.5677 6.86891 34.0962 9.1751 36.8281ZM23.4706 24.4535C24.0669 24.5105 24.5042 25.0403 24.4472 25.6366C24.3903 26.2329 23.8605 26.6702 23.2642 26.6132C22.6679 26.5562 22.2306 26.0265 22.2876 25.4302C22.3445 24.8336 22.8742 24.3963 23.4706 24.4535ZM20.2414 27.3214C20.7368 27.3687 21.1 27.8086 21.0524 28.3038C21.0051 28.7992 20.5652 29.1624 20.07 29.1148C19.5746 29.0675 19.2114 28.6276 19.259 28.1324C19.3061 27.6373 19.7461 27.2741 20.2414 27.3214ZM17.3351 29.5186C17.8304 29.5659 18.1936 30.0059 18.1463 30.501C18.099 30.9964 17.6591 31.3596 17.1639 31.3119C16.6685 31.2646 16.3053 30.8247 16.3529 30.3295C16.3997 29.8345 16.8397 29.4713 17.3351 29.5186ZM14.4133 31.9726C14.8226 32.0119 15.1228 32.3752 15.0836 32.7847C15.0444 33.194 14.6808 33.4943 14.2715 33.4551C13.8622 33.4158 13.5619 33.0523 13.6012 32.643C13.6402 32.2338 14.0038 31.9337 14.4133 31.9726ZM11.1212 34.2438C11.7175 34.3008 12.1548 34.8305 12.0978 35.4269C12.0408 36.0232 11.5111 36.4605 10.9147 36.4035C10.3184 36.3465 9.88113 35.8168 9.93811 35.2204C9.99509 34.6241 10.5248 34.1868 11.1212 34.2438Z" fill="white"/>
</mask>
<g mask="url(#mask2_6_4)">
<path opacity="0.2" d="M22.3363 30.9755C22.3363 30.9755 14.2673 35.8683 8.86665 35.352C8.74455 35.3404 5.87926 38.2679 8.59085 40.2999C11.3024 42.332 13.9531 38.3007 13.9531 38.3007C13.9531 38.3007 20.5139 31.491 22.3363 30.9755Z" fill="white"/>
</g>
<mask id="mask3_6_4" style="mask-type:luminance" maskUnits="userSpaceOnUse" x="8" y="11" width="33" height="27">
<path d="M9.1751 36.8281C11.7088 39.83 15.0403 35.1723 16.4282 33.7906C17.8025 32.4225 19.885 30.2796 22.0424 28.768C24.2 27.2567 26.2151 27.0429 27.11 27.1467C27.11 27.1467 36.6523 19.286 40.7597 11.8661C40.7597 11.8661 32.1169 14.18 22.5935 21.8395C22.5935 21.8395 22.7672 23.6845 19.7229 26.3672C16.698 29.0331 11.9124 31.5677 11.9124 31.5677C11.9124 31.5677 6.86891 34.0962 9.1751 36.8281ZM23.4706 24.4535C24.0669 24.5105 24.5042 25.0403 24.4472 25.6366C24.3903 26.2329 23.8605 26.6702 23.2642 26.6132C22.6679 26.5562 22.2306 26.0265 22.2876 25.4302C22.3445 24.8336 22.8742 24.3963 23.4706 24.4535ZM20.2414 27.3214C20.7368 27.3687 21.1 27.8086 21.0524 28.3038C21.0051 28.7992 20.5652 29.1624 20.07 29.1148C19.5746 29.0675 19.2114 28.6276 19.259 28.1324C19.3061 27.6373 19.7461 27.2741 20.2414 27.3214ZM17.3351 29.5186C17.8304 29.5659 18.1936 30.0059 18.1463 30.501C18.099 30.9964 17.6591 31.3596 17.1639 31.3119C16.6685 31.2646 16.3053 30.8247 16.3529 30.3295C16.3997 29.8345 16.8397 29.4713 17.3351 29.5186ZM14.4133 31.9726C14.8226 32.0119 15.1228 32.3752 15.0836 32.7847C15.0444 33.194 14.6808 33.4943 14.2715 33.4551C13.8622 33.4158 13.5619 33.0523 13.6012 32.643C13.6402 32.2338 14.0038 31.9337 14.4133 31.9726ZM11.1212 34.2438C11.7175 34.3008 12.1548 34.8305 12.0978 35.4269C12.0408 36.0232 11.5111 36.4605 10.9147 36.4035C10.3184 36.3465 9.88113 35.8168 9.93811 35.2204C9.99509 34.6241 10.5248 34.1868 11.1212 34.2438Z" fill="white"/>
</mask>
<g mask="url(#mask3_6_4)">
<path opacity="0.2" d="M31.0471 16.0969C31.0471 16.0969 29.1554 23.0081 25.4912 27.3367L28.0707 28.1742C28.0707 28.1742 40.9398 15.3922 41.4721 11.6262C41.4721 11.6262 32.7844 12.3474 31.0471 16.0969Z" fill="white"/>
</g>
<mask id="mask4_6_4" style="mask-type:luminance" maskUnits="userSpaceOnUse" x="8" y="11" width="33" height="27">
<path d="M9.1751 36.8281C11.7088 39.83 15.0403 35.1723 16.4282 33.7906C17.8025 32.4225 19.885 30.2796 22.0424 28.768C24.2 27.2567 26.2151 27.0429 27.11 27.1467C27.11 27.1467 36.6523 19.286 40.7597 11.8661C40.7597 11.8661 32.1169 14.18 22.5935 21.8395C22.5935 21.8395 22.7672 23.6845 19.7229 26.3672C16.698 29.0331 11.9124 31.5677 11.9124 31.5677C11.9124 31.5677 6.86891 34.0962 9.1751 36.8281ZM23.4706 24.4535C24.0669 24.5105 24.5042 25.0403 24.4472 25.6366C24.3903 26.2329 23.8605 26.6702 23.2642 26.6132C22.6679 26.5562 22.2306 26.0265 22.2876 25.4302C22.3445 24.8336 22.8742 24.3963 23.4706 24.4535ZM20.2414 27.3214C20.7368 27.3687 21.1 27.8086 21.0524 28.3038C21.0051 28.7992 20.5652 29.1624 20.07 29.1148C19.5746 29.0675 19.2114 28.6276 19.259 28.1324C19.3061 27.6373 19.7461 27.2741 20.2414 27.3214ZM17.3351 29.5186C17.8304 29.5659 18.1936 30.0059 18.1463 30.501C18.099 30.9964 17.6591 31.3596 17.1639 31.3119C16.6685 31.2646 16.3053 30.8247 16.3529 30.3295C16.3997 29.8345 16.8397 29.4713 17.3351 29.5186ZM14.4133 31.9726C14.8226 32.0119 15.1228 32.3752 15.0836 32.7847C15.0444 33.194 14.6808 33.4943 14.2715 33.4551C13.8622 33.4158 13.5619 33.0523 13.6012 32.643C13.6402 32.2338 14.0038 31.9337 14.4133 31.9726ZM11.1212 34.2438C11.7175 34.3008 12.1548 34.8305 12.0978 35.4269C12.0408 36.0232 11.5111 36.4605 10.9147 36.4035C10.3184 36.3465 9.88113 35.8168 9.93811 35.2204C9.99509 34.6241 10.5248 34.1868 11.1212 34.2438Z" fill="white"/>
</mask>
<g mask="url(#mask4_6_4)">
<path opacity="0.2" d="M35.5749 14.0671C35.5749 14.0671 33.6832 20.9783 30.0191 25.3069L32.5985 26.1444C32.5985 26.1444 45.4676 13.3624 45.9999 9.59639C45.9999 9.59639 37.3122 10.3176 35.5749 14.0671Z" fill="white"/>
</g>
<path d="M21.7985 23.9797C22.8665 23.2055 23.9738 22.4882 25.0801 21.7693C26.1949 21.0642 27.3229 20.3812 28.4532 19.7014C29.5816 19.0184 30.7299 18.3698 31.8746 17.7152C33.0237 17.0679 34.1775 16.4312 35.3385 15.8027L36.2727 15.2969L35.6559 16.1351C35.5534 16.2745 35.4518 16.4249 35.3462 16.5538L35.0276 16.9334C34.8139 17.1842 34.594 17.4246 34.3773 17.6706C33.9371 18.1531 33.4975 18.6355 33.0484 19.108C32.1493 20.0526 31.2516 20.9971 30.3305 21.9191L27.5704 24.6864C26.6353 25.5938 25.7094 26.5103 24.7589 27.4023C25.6325 26.4351 26.5252 25.4865 27.4036 24.5246L30.0667 21.6665L32.7186 18.801L34.0309 17.3596C34.243 17.1156 34.4615 16.8742 34.6686 16.628L34.976 16.2576C35.0758 16.1342 35.1549 16.0127 35.2463 15.891L35.5637 16.2234C33.2446 17.4671 30.9398 18.7431 28.6368 20.0193C27.4862 20.6594 26.3388 21.306 25.2015 21.9694C24.0556 22.6195 22.9261 23.2958 21.7985 23.9797Z" fill="#617A84"/>
<path d="M40.7597 11.8665L35.5977 16.2013L35.3039 15.8253L40.7597 11.8665Z" fill="#617A84"/>
<path opacity="0.35" d="M24.722 27.3993L26.08 27.1044C26.08 27.1044 37.3492 17.9865 40.297 12.2658C40.297 12.2658 31.8309 14.8551 22.4873 22.5687L21.5937 23.9977L36.2601 15.2783L24.722 27.3993Z" fill="#617A84"/>
<path d="M22.2878 25.4303C22.3457 24.8238 22.8842 24.3791 23.4907 24.437C24.0971 24.4949 24.5418 25.0334 24.4839 25.6399C24.426 26.2464 23.8872 26.6912 23.2807 26.6332C22.6743 26.5753 22.2298 26.0367 22.2878 25.4303Z" stroke="#617A84" stroke-width="0.294171" stroke-miterlimit="10"/>
<path d="M9.93811 35.2203C9.99604 34.6138 10.5345 34.1691 11.141 34.2271C11.7475 34.285 12.1922 34.8235 12.1343 35.43C12.0763 36.0364 11.5378 36.4811 10.9314 36.4232C10.3249 36.3653 9.88017 35.8268 9.93811 35.2203Z" stroke="#617A84" stroke-width="0.294171" stroke-miterlimit="10"/>
<path d="M13.5855 32.6138C13.626 32.1892 14.003 31.8779 14.4277 31.9187C14.8523 31.9593 15.1636 32.3362 15.1228 32.7609C15.0822 33.1855 14.7053 33.4968 14.2806 33.456C13.8562 33.4154 13.545 33.0384 13.5855 32.6138Z" stroke="#617A84" stroke-width="0.205914" stroke-miterlimit="10"/>
<path d="M16.3144 30.3446C16.3637 29.8292 16.8214 29.4511 17.3371 29.5003C17.8525 29.5495 18.2306 30.0072 18.1814 30.5229C18.1322 31.0383 17.6745 31.4164 17.1588 31.3672C16.6431 31.318 16.2652 30.8603 16.3144 30.3446Z" stroke="#617A84" stroke-width="0.250029" stroke-miterlimit="10"/>
<path d="M19.2209 28.1478C19.2702 27.6324 19.7279 27.2543 20.2436 27.3035C20.759 27.3527 21.1371 27.8104 21.0879 28.3261C21.0386 28.8415 20.5809 29.2197 20.0653 29.1705C19.5495 29.121 19.1717 28.6632 19.2209 28.1478Z" stroke="#617A84" stroke-width="0.250029" stroke-miterlimit="10"/>
</svg>
